<mxfile host="app.diagrams.net" modified="2023-08-28T02:45:44.394Z" agent="Mozilla/5.0 (Macintosh; Intel Mac OS X 10_15_7) AppleWebKit/537.36 (KHTML, like Gecko) Chrome/114.0.0.0 Safari/537.36" etag="3Gl_pMDnQWhAL7__yJY1" version="21.5.2" type="github" pages="3">
  <diagram id="_-uhTWFdQZPDEljv8Cb8" name="map-tracing overview">
    <mxGraphModel dx="2156" dy="680" grid="1" gridSize="10" guides="1" tooltips="1" connect="1" arrows="1" fold="1" page="1" pageScale="1" pageWidth="850" pageHeight="1100" math="0" shadow="0">
      <root>
        <mxCell id="0" />
        <mxCell id="1" parent="0" />
        <mxCell id="HXe4CxMgwzfpHdLGMaqO-18" value="" style="group" parent="1" vertex="1" connectable="0">
          <mxGeometry x="-780" y="90" width="655" height="605.66" as="geometry" />
        </mxCell>
        <mxCell id="BWnI5NT4o7_Qsn3ONW-L-2" value="&lt;pre style=&quot;background-color: rgb(255, 255, 255); color: rgb(8, 8, 8); font-size: 17px;&quot;&gt;&lt;font style=&quot;font-size: 17px;&quot; data-font-src=&quot;https://fonts.googleapis.com/css?family=Architects+Daughter&quot; face=&quot;Architects Daughter&quot;&gt;&lt;span style=&quot;font-size: 17px;&quot;&gt;Filter noice point&lt;/span&gt;&lt;/font&gt;&lt;/pre&gt;" style="rounded=1;whiteSpace=wrap;html=1;sketch=1;hachureGap=4;jiggle=2;curveFitting=1;strokeColor=#82b366;fontFamily=Architects Daughter;fontSource=https%3A%2F%2Ffonts.googleapis.com%2Fcss%3Ffamily%3DArchitects%2BDaughter;fontSize=17;fillColor=#d5e8d4;fontStyle=1" parent="HXe4CxMgwzfpHdLGMaqO-18" vertex="1">
          <mxGeometry x="55" width="320" height="70" as="geometry" />
        </mxCell>
        <mxCell id="BWnI5NT4o7_Qsn3ONW-L-6" value="" style="group;fontFamily=Architects Daughter;fontSource=https%3A%2F%2Ffonts.googleapis.com%2Fcss%3Ffamily%3DArchitects%2BDaughter;verticalAlign=middle;" parent="HXe4CxMgwzfpHdLGMaqO-18" vertex="1" connectable="0">
          <mxGeometry x="55" y="113.83000000000001" width="320" height="90" as="geometry" />
        </mxCell>
        <mxCell id="BWnI5NT4o7_Qsn3ONW-L-7" value="&lt;span style=&quot;background-color: rgb(255, 255, 255);&quot;&gt;&lt;font style=&quot;font-size: 17px;&quot;&gt;&lt;b&gt;Find predecessor candidates&lt;/b&gt;&lt;/font&gt;&lt;/span&gt;" style="shape=process;whiteSpace=wrap;html=1;backgroundOutline=1;sketch=1;hachureGap=4;jiggle=2;curveFitting=1;strokeColor=#E07A5F;fontFamily=Architects Daughter;fontSource=https%3A%2F%2Ffonts.googleapis.com%2Fcss%3Ffamily%3DArchitects%2BDaughter;fontSize=20;fontColor=#393C56;fillColor=#F2CC8F;verticalAlign=top;" parent="BWnI5NT4o7_Qsn3ONW-L-6" vertex="1">
          <mxGeometry y="16.363636363636363" width="320" height="73.63636363636364" as="geometry" />
        </mxCell>
        <mxCell id="BWnI5NT4o7_Qsn3ONW-L-8" value="1" style="rounded=1;whiteSpace=wrap;html=1;sketch=1;hachureGap=4;jiggle=2;curveFitting=1;strokeColor=#E07A5F;fontFamily=Architects Daughter;fontSource=https%3A%2F%2Ffonts.googleapis.com%2Fcss%3Ffamily%3DArchitects%2BDaughter;fontSize=20;fontColor=#393C56;fillColor=#F2CC8F;" parent="BWnI5NT4o7_Qsn3ONW-L-6" vertex="1">
          <mxGeometry x="40" y="59.73024018520302" width="50" height="22.233590939782715" as="geometry" />
        </mxCell>
        <mxCell id="BWnI5NT4o7_Qsn3ONW-L-9" value="2" style="rounded=1;whiteSpace=wrap;html=1;sketch=1;hachureGap=4;jiggle=2;curveFitting=1;strokeColor=#E07A5F;fontFamily=Architects Daughter;fontSource=https%3A%2F%2Ffonts.googleapis.com%2Fcss%3Ffamily%3DArchitects%2BDaughter;fontSize=20;fontColor=#393C56;fillColor=#F2CC8F;" parent="BWnI5NT4o7_Qsn3ONW-L-6" vertex="1">
          <mxGeometry x="100" y="59.73024018520302" width="50" height="22.233590939782715" as="geometry" />
        </mxCell>
        <mxCell id="BWnI5NT4o7_Qsn3ONW-L-10" value="3" style="rounded=1;whiteSpace=wrap;html=1;sketch=1;hachureGap=4;jiggle=2;curveFitting=1;strokeColor=#E07A5F;fontFamily=Architects Daughter;fontSource=https%3A%2F%2Ffonts.googleapis.com%2Fcss%3Ffamily%3DArchitects%2BDaughter;fontSize=20;fontColor=#393C56;fillColor=#F2CC8F;" parent="BWnI5NT4o7_Qsn3ONW-L-6" vertex="1">
          <mxGeometry x="160" y="59.73024018520302" width="50" height="22.233590939782715" as="geometry" />
        </mxCell>
        <mxCell id="BWnI5NT4o7_Qsn3ONW-L-11" value="4" style="rounded=1;whiteSpace=wrap;html=1;sketch=1;hachureGap=4;jiggle=2;curveFitting=1;strokeColor=#E07A5F;fontFamily=Architects Daughter;fontSource=https%3A%2F%2Ffonts.googleapis.com%2Fcss%3Ffamily%3DArchitects%2BDaughter;fontSize=20;fontColor=#393C56;fillColor=#F2CC8F;" parent="BWnI5NT4o7_Qsn3ONW-L-6" vertex="1">
          <mxGeometry x="230" y="59.73024018520302" width="50" height="22.233590939782715" as="geometry" />
        </mxCell>
        <mxCell id="BWnI5NT4o7_Qsn3ONW-L-15" value="" style="group" parent="HXe4CxMgwzfpHdLGMaqO-18" vertex="1" connectable="0">
          <mxGeometry y="250.66000000000005" width="410" height="354.99999999999994" as="geometry" />
        </mxCell>
        <mxCell id="kX2fQbJKptrWkQOta0ZJ-1" value="&lt;br&gt;&lt;br&gt;&lt;br&gt;&lt;br&gt;&lt;br&gt;&lt;br&gt;&lt;p style=&quot;language:en-US;margin-top:0pt;margin-bottom:0pt;margin-left:0in;&lt;br/&gt;text-align:left;direction:ltr;unicode-bidi:embed;mso-line-break-override:none;&lt;br/&gt;word-break:normal;punctuation-wrap:hanging&quot;&gt;&lt;/p&gt;&lt;br&gt;" style="rounded=1;whiteSpace=wrap;html=1;sketch=1;curveFitting=1;jiggle=2;labelBackgroundColor=none;fillColor=#dae8fc;strokeColor=#6c8ebf;horizontal=1;align=right;verticalAlign=top;container=0;" parent="BWnI5NT4o7_Qsn3ONW-L-15" vertex="1">
          <mxGeometry y="5" width="410" height="350" as="geometry" />
        </mxCell>
        <mxCell id="BWnI5NT4o7_Qsn3ONW-L-1" value="Hidden Markov Map Matching&lt;br&gt;" style="text;html=1;strokeColor=none;fillColor=none;align=center;verticalAlign=middle;whiteSpace=wrap;rounded=0;fontSize=20;fontFamily=Architects Daughter;fontColor=#393C56;horizontal=0;" parent="BWnI5NT4o7_Qsn3ONW-L-15" vertex="1">
          <mxGeometry width="50" height="350" as="geometry" />
        </mxCell>
        <mxCell id="BWnI5NT4o7_Qsn3ONW-L-3" value="&lt;pre style=&quot;background-color: rgb(255, 255, 255); color: rgb(8, 8, 8); font-size: 17px;&quot;&gt;&lt;font style=&quot;font-size: 17px;&quot; data-font-src=&quot;https://fonts.googleapis.com/css?family=Architects+Daughter&quot; face=&quot;Architects Daughter&quot;&gt;&lt;span style=&quot;font-size: 17px;&quot;&gt;Find nearest edges as candidates&lt;/span&gt;&lt;/font&gt;&lt;/pre&gt;" style="rounded=1;whiteSpace=wrap;html=1;sketch=1;hachureGap=4;jiggle=2;curveFitting=1;strokeColor=#006EAF;fontFamily=Architects Daughter;fontSource=https%3A%2F%2Ffonts.googleapis.com%2Fcss%3Ffamily%3DArchitects%2BDaughter;fontSize=17;fontColor=#ffffff;fillColor=#1ba1e2;fontStyle=1" parent="BWnI5NT4o7_Qsn3ONW-L-15" vertex="1">
          <mxGeometry x="60" y="35" width="320" height="75" as="geometry" />
        </mxCell>
        <mxCell id="BWnI5NT4o7_Qsn3ONW-L-4" value="&lt;pre style=&quot;background-color: rgb(255, 255, 255); color: rgb(8, 8, 8); font-size: 17px;&quot;&gt;&lt;font style=&quot;font-size: 17px;&quot; data-font-src=&quot;https://fonts.googleapis.com/css?family=Architects+Daughter&quot; face=&quot;Architects Daughter&quot;&gt;&lt;span style=&quot;font-size: 17px;&quot;&gt;Consider Connectivity&lt;/span&gt;&lt;/font&gt;&lt;/pre&gt;" style="rounded=1;whiteSpace=wrap;html=1;sketch=1;hachureGap=4;jiggle=2;curveFitting=1;strokeColor=#006EAF;fontFamily=Architects Daughter;fontSource=https%3A%2F%2Ffonts.googleapis.com%2Fcss%3Ffamily%3DArchitects%2BDaughter;fontSize=17;fontColor=#ffffff;fillColor=#1ba1e2;fontStyle=1" parent="BWnI5NT4o7_Qsn3ONW-L-15" vertex="1">
          <mxGeometry x="60" y="145" width="320" height="75" as="geometry" />
        </mxCell>
        <mxCell id="BWnI5NT4o7_Qsn3ONW-L-5" value="&lt;pre style=&quot;background-color: rgb(255, 255, 255); color: rgb(8, 8, 8); font-size: 17px;&quot;&gt;&lt;font style=&quot;font-size: 17px;&quot; data-font-src=&quot;https://fonts.googleapis.com/css?family=Architects+Daughter&quot; face=&quot;Architects Daughter&quot;&gt;&lt;span style=&quot;font-size: 17px;&quot;&gt;Optimal Path&lt;/span&gt;&lt;/font&gt;&lt;/pre&gt;" style="rounded=1;whiteSpace=wrap;html=1;sketch=1;hachureGap=4;jiggle=2;curveFitting=1;strokeColor=#006EAF;fontFamily=Architects Daughter;fontSource=https%3A%2F%2Ffonts.googleapis.com%2Fcss%3Ffamily%3DArchitects%2BDaughter;fontSize=17;fontColor=#ffffff;fillColor=#1ba1e2;fontStyle=1" parent="BWnI5NT4o7_Qsn3ONW-L-15" vertex="1">
          <mxGeometry x="60" y="255" width="320" height="65" as="geometry" />
        </mxCell>
        <mxCell id="BWnI5NT4o7_Qsn3ONW-L-35" value="" style="endArrow=block;html=1;rounded=1;strokeWidth=2;sketch=1;curveFitting=1;jiggle=2;labelBackgroundColor=none;strokeColor=#FF3333;fontColor=default;endFill=1;edgeStyle=orthogonalEdgeStyle;curved=1;exitX=0.5;exitY=1;exitDx=0;exitDy=0;" parent="BWnI5NT4o7_Qsn3ONW-L-15" source="BWnI5NT4o7_Qsn3ONW-L-3" target="BWnI5NT4o7_Qsn3ONW-L-4" edge="1">
          <mxGeometry width="50" height="50" relative="1" as="geometry">
            <mxPoint x="240" y="-58.00000000000006" as="sourcePoint" />
            <mxPoint x="230" y="44.99999999999994" as="targetPoint" />
          </mxGeometry>
        </mxCell>
        <mxCell id="BWnI5NT4o7_Qsn3ONW-L-16" value="Kalman Filter" style="shape=dataStorage;whiteSpace=wrap;html=1;fixedSize=1;sketch=1;hachureGap=4;jiggle=2;curveFitting=1;strokeColor=#2D7600;fontFamily=Architects Daughter;fontSource=https%3A%2F%2Ffonts.googleapis.com%2Fcss%3Ffamily%3DArchitects%2BDaughter;fontSize=17;fontColor=#1A1A1A;fillColor=#60a917;fontStyle=1;labelBackgroundColor=default;" parent="HXe4CxMgwzfpHdLGMaqO-18" vertex="1">
          <mxGeometry x="440" y="9.340000000000003" width="210" height="51.33" as="geometry" />
        </mxCell>
        <mxCell id="BWnI5NT4o7_Qsn3ONW-L-17" value="" style="shape=flexArrow;endArrow=classic;html=1;rounded=0;sketch=1;hachureGap=4;jiggle=2;curveFitting=1;strokeColor=#A50040;fontFamily=Architects Daughter;fontSource=https%3A%2F%2Ffonts.googleapis.com%2Fcss%3Ffamily%3DArchitects%2BDaughter;fontSize=16;fontColor=#393C56;fillColor=#d80073;" parent="HXe4CxMgwzfpHdLGMaqO-18" edge="1">
          <mxGeometry width="50" height="50" relative="1" as="geometry">
            <mxPoint x="420" y="34.49999999999997" as="sourcePoint" />
            <mxPoint x="385" y="34.500000000000085" as="targetPoint" />
          </mxGeometry>
        </mxCell>
        <mxCell id="BWnI5NT4o7_Qsn3ONW-L-20" value="Identity Storage" style="shape=dataStorage;whiteSpace=wrap;html=1;fixedSize=1;sketch=1;hachureGap=4;jiggle=2;curveFitting=1;strokeColor=#E07A5F;fontFamily=Architects Daughter;fontSource=https%3A%2F%2Ffonts.googleapis.com%2Fcss%3Ffamily%3DArchitects%2BDaughter;fontSize=17;fontColor=#393C56;fillColor=#F2CC8F;fontStyle=1;labelBackgroundColor=default;" parent="HXe4CxMgwzfpHdLGMaqO-18" vertex="1">
          <mxGeometry x="445" y="148.98999999999998" width="200" height="51.33" as="geometry" />
        </mxCell>
        <mxCell id="BWnI5NT4o7_Qsn3ONW-L-21" value="Emission Probability" style="shape=dataStorage;whiteSpace=wrap;html=1;fixedSize=1;sketch=1;hachureGap=4;jiggle=2;curveFitting=1;strokeColor=#006EAF;fontFamily=Architects Daughter;fontSource=https%3A%2F%2Ffonts.googleapis.com%2Fcss%3Ffamily%3DArchitects%2BDaughter;fontSize=17;fillColor=#1ba1e2;fontColor=#333333;fontStyle=1;labelBackgroundColor=default;" parent="HXe4CxMgwzfpHdLGMaqO-18" vertex="1">
          <mxGeometry x="445" y="300.65999999999997" width="210" height="50" as="geometry" />
        </mxCell>
        <mxCell id="BWnI5NT4o7_Qsn3ONW-L-22" value="Transition Probability" style="shape=dataStorage;whiteSpace=wrap;html=1;fixedSize=1;sketch=1;hachureGap=4;jiggle=2;curveFitting=1;strokeColor=#006EAF;fontFamily=Architects Daughter;fontSource=https%3A%2F%2Ffonts.googleapis.com%2Fcss%3Ffamily%3DArchitects%2BDaughter;fontSize=17;fillColor=#1ba1e2;fontColor=#333333;fontStyle=1;labelBackgroundColor=default;" parent="HXe4CxMgwzfpHdLGMaqO-18" vertex="1">
          <mxGeometry x="455" y="416.99" width="200" height="50" as="geometry" />
        </mxCell>
        <mxCell id="BWnI5NT4o7_Qsn3ONW-L-23" value="Viterbi Algorithm" style="shape=dataStorage;whiteSpace=wrap;html=1;fixedSize=1;sketch=1;hachureGap=4;jiggle=2;curveFitting=1;strokeColor=#006EAF;fontFamily=Architects Daughter;fontSource=https%3A%2F%2Ffonts.googleapis.com%2Fcss%3Ffamily%3DArchitects%2BDaughter;fontSize=17;fillColor=#1ba1e2;fontColor=#333333;fontStyle=1;labelBackgroundColor=default;" parent="HXe4CxMgwzfpHdLGMaqO-18" vertex="1">
          <mxGeometry x="455" y="520.66" width="200" height="50" as="geometry" />
        </mxCell>
        <mxCell id="BWnI5NT4o7_Qsn3ONW-L-28" value="" style="shape=flexArrow;endArrow=classic;html=1;rounded=0;sketch=1;hachureGap=4;jiggle=2;curveFitting=1;strokeColor=#A50040;fontFamily=Architects Daughter;fontSource=https%3A%2F%2Ffonts.googleapis.com%2Fcss%3Ffamily%3DArchitects%2BDaughter;fontSize=16;fontColor=#393C56;fillColor=#d80073;" parent="HXe4CxMgwzfpHdLGMaqO-18" edge="1">
          <mxGeometry width="50" height="50" relative="1" as="geometry">
            <mxPoint x="430" y="170.66" as="sourcePoint" />
            <mxPoint x="395" y="170.6600000000001" as="targetPoint" />
          </mxGeometry>
        </mxCell>
        <mxCell id="BWnI5NT4o7_Qsn3ONW-L-29" value="" style="shape=flexArrow;endArrow=classic;html=1;rounded=0;sketch=1;hachureGap=4;jiggle=2;curveFitting=1;strokeColor=#A50040;fontFamily=Architects Daughter;fontSource=https%3A%2F%2Ffonts.googleapis.com%2Fcss%3Ffamily%3DArchitects%2BDaughter;fontSize=16;fontColor=#393C56;fillColor=#d80073;" parent="HXe4CxMgwzfpHdLGMaqO-18" edge="1">
          <mxGeometry width="50" height="50" relative="1" as="geometry">
            <mxPoint x="435" y="330.65999999999997" as="sourcePoint" />
            <mxPoint x="400" y="330.6600000000001" as="targetPoint" />
          </mxGeometry>
        </mxCell>
        <mxCell id="BWnI5NT4o7_Qsn3ONW-L-30" value="" style="shape=flexArrow;endArrow=classic;html=1;rounded=0;sketch=1;hachureGap=4;jiggle=2;curveFitting=1;strokeColor=#A50040;fontFamily=Architects Daughter;fontSource=https%3A%2F%2Ffonts.googleapis.com%2Fcss%3Ffamily%3DArchitects%2BDaughter;fontSize=16;fontColor=#393C56;fillColor=#d80073;" parent="HXe4CxMgwzfpHdLGMaqO-18" edge="1">
          <mxGeometry width="50" height="50" relative="1" as="geometry">
            <mxPoint x="435" y="440.65999999999997" as="sourcePoint" />
            <mxPoint x="400" y="440.6600000000001" as="targetPoint" />
          </mxGeometry>
        </mxCell>
        <mxCell id="BWnI5NT4o7_Qsn3ONW-L-31" value="" style="shape=flexArrow;endArrow=classic;html=1;rounded=0;sketch=1;hachureGap=4;jiggle=2;curveFitting=1;strokeColor=#A50040;fontFamily=Architects Daughter;fontSource=https%3A%2F%2Ffonts.googleapis.com%2Fcss%3Ffamily%3DArchitects%2BDaughter;fontSize=16;fontColor=#393C56;fillColor=#d80073;" parent="HXe4CxMgwzfpHdLGMaqO-18" edge="1">
          <mxGeometry width="50" height="50" relative="1" as="geometry">
            <mxPoint x="435" y="540.66" as="sourcePoint" />
            <mxPoint x="400" y="540.6600000000001" as="targetPoint" />
          </mxGeometry>
        </mxCell>
        <mxCell id="BWnI5NT4o7_Qsn3ONW-L-33" value="" style="endArrow=block;html=1;rounded=1;strokeWidth=2;sketch=1;curveFitting=1;jiggle=2;labelBackgroundColor=none;strokeColor=#FF3333;fontColor=default;endFill=1;edgeStyle=orthogonalEdgeStyle;curved=1;" parent="HXe4CxMgwzfpHdLGMaqO-18" source="BWnI5NT4o7_Qsn3ONW-L-2" target="BWnI5NT4o7_Qsn3ONW-L-7" edge="1">
          <mxGeometry width="50" height="50" relative="1" as="geometry">
            <mxPoint x="214.5" y="62.66" as="sourcePoint" />
            <mxPoint x="254.5" y="190.66" as="targetPoint" />
          </mxGeometry>
        </mxCell>
        <mxCell id="BWnI5NT4o7_Qsn3ONW-L-34" value="" style="endArrow=block;html=1;rounded=1;strokeWidth=2;sketch=1;curveFitting=1;jiggle=2;labelBackgroundColor=none;strokeColor=#FF3333;fontColor=default;endFill=1;edgeStyle=orthogonalEdgeStyle;curved=1;entryX=0.5;entryY=0;entryDx=0;entryDy=0;exitX=0.5;exitY=1;exitDx=0;exitDy=0;" parent="HXe4CxMgwzfpHdLGMaqO-18" source="BWnI5NT4o7_Qsn3ONW-L-7" target="BWnI5NT4o7_Qsn3ONW-L-3" edge="1">
          <mxGeometry width="50" height="50" relative="1" as="geometry">
            <mxPoint x="215" y="70.66" as="sourcePoint" />
            <mxPoint x="215" y="126.66" as="targetPoint" />
          </mxGeometry>
        </mxCell>
        <mxCell id="BWnI5NT4o7_Qsn3ONW-L-36" value="" style="endArrow=block;html=1;rounded=1;strokeWidth=2;sketch=1;curveFitting=1;jiggle=2;labelBackgroundColor=none;strokeColor=#FF3333;fontColor=default;endFill=1;edgeStyle=orthogonalEdgeStyle;curved=1;entryX=0.5;entryY=0;entryDx=0;entryDy=0;" parent="HXe4CxMgwzfpHdLGMaqO-18" target="BWnI5NT4o7_Qsn3ONW-L-5" edge="1">
          <mxGeometry width="50" height="50" relative="1" as="geometry">
            <mxPoint x="220" y="470.65999999999997" as="sourcePoint" />
            <mxPoint x="230" y="405.65999999999997" as="targetPoint" />
          </mxGeometry>
        </mxCell>
      </root>
    </mxGraphModel>
  </diagram>
  <diagram name="map-tracing-design" id="4pKibyBMDkxt1yc8ViTp">
    <mxGraphModel dx="2887" dy="1718" grid="1" gridSize="10" guides="1" tooltips="1" connect="1" arrows="1" fold="1" page="1" pageScale="1" pageWidth="850" pageHeight="1100" math="0" shadow="0">
      <root>
        <mxCell id="0" />
        <mxCell id="1" parent="0" />
        <mxCell id="xFDWZydJ_4FfnXVutMAn-6" value="&lt;div style=&quot;background-color: rgb(255, 255, 255); color: rgb(8, 8, 8); font-size: 17px;&quot;&gt;&lt;div style=&quot;font-size: 17px;&quot;&gt;GPS Point&lt;/div&gt;&lt;/div&gt;" style="rounded=1;whiteSpace=wrap;html=1;sketch=1;hachureGap=4;jiggle=2;curveFitting=1;fontFamily=Architects Daughter;fontSource=https%3A%2F%2Ffonts.googleapis.com%2Fcss%3Ffamily%3DArchitects%2BDaughter;fontSize=17;fontStyle=1;fillColor=#f5f5f5;fontColor=#333333;strokeColor=#666666;" parent="1" vertex="1">
          <mxGeometry x="-370" y="-50" width="300" height="70" as="geometry" />
        </mxCell>
        <mxCell id="xFDWZydJ_4FfnXVutMAn-8" value="" style="rounded=1;whiteSpace=wrap;html=1;sketch=1;curveFitting=1;jiggle=2;labelBackgroundColor=none;fillColor=#dae8fc;strokeColor=#6c8ebf;" parent="1" vertex="1">
          <mxGeometry x="-840" y="240" width="790" height="480" as="geometry" />
        </mxCell>
        <mxCell id="xFDWZydJ_4FfnXVutMAn-9" value="&lt;b&gt;Engine&lt;/b&gt;" style="text;html=1;strokeColor=none;fillColor=none;align=center;verticalAlign=middle;whiteSpace=wrap;rounded=0;fontSize=20;fontFamily=Architects Daughter;fontColor=#393C56;" parent="1" vertex="1">
          <mxGeometry x="-160" y="250" width="80" height="30" as="geometry" />
        </mxCell>
        <mxCell id="xFDWZydJ_4FfnXVutMAn-10" value="&lt;pre style=&quot;color: rgb(8, 8, 8); font-size: 17px;&quot;&gt;&lt;font style=&quot;font-size: 17px;&quot; data-font-src=&quot;https://fonts.googleapis.com/css?family=Architects+Daughter&quot; face=&quot;Architects Daughter&quot;&gt;&lt;span style=&quot;font-size: 17px;&quot;&gt;RoadMapHolder&lt;/span&gt;&lt;/font&gt;&lt;/pre&gt;" style="rounded=1;whiteSpace=wrap;html=1;sketch=1;hachureGap=4;jiggle=2;curveFitting=1;strokeColor=#006EAF;fontFamily=Architects Daughter;fontSource=https%3A%2F%2Ffonts.googleapis.com%2Fcss%3Ffamily%3DArchitects%2BDaughter;fontSize=17;fontColor=#ffffff;fillColor=#1ba1e2;fontStyle=1" parent="1" vertex="1">
          <mxGeometry x="-813" y="290" width="250" height="60" as="geometry" />
        </mxCell>
        <mxCell id="xFDWZydJ_4FfnXVutMAn-20" value="" style="endArrow=block;html=1;rounded=1;strokeWidth=2;sketch=1;curveFitting=1;jiggle=2;labelBackgroundColor=none;strokeColor=#FF3333;fontColor=default;endFill=1;edgeStyle=orthogonalEdgeStyle;curved=1;exitX=1;exitY=0.5;exitDx=0;exitDy=0;entryX=0.5;entryY=0;entryDx=0;entryDy=0;" parent="1" edge="1">
          <mxGeometry width="50" height="50" relative="1" as="geometry">
            <mxPoint x="-540" y="396.3299999999999" as="sourcePoint" />
            <mxPoint x="-655" y="376" as="targetPoint" />
          </mxGeometry>
        </mxCell>
        <mxCell id="xFDWZydJ_4FfnXVutMAn-21" value="" style="endArrow=block;html=1;rounded=1;strokeWidth=2;sketch=1;curveFitting=1;jiggle=2;labelBackgroundColor=none;strokeColor=#FF3333;fontColor=default;endFill=1;edgeStyle=orthogonalEdgeStyle;curved=1;entryX=0.5;entryY=0;entryDx=0;entryDy=0;exitX=0;exitY=0.5;exitDx=0;exitDy=0;" parent="1" edge="1">
          <mxGeometry width="50" height="50" relative="1" as="geometry">
            <mxPoint x="-450" y="396.3299999999999" as="sourcePoint" />
            <mxPoint x="-500" y="450" as="targetPoint" />
          </mxGeometry>
        </mxCell>
        <mxCell id="xFDWZydJ_4FfnXVutMAn-23" value="" style="endArrow=block;html=1;strokeWidth=2;sketch=1;curveFitting=1;jiggle=2;labelBackgroundColor=none;strokeColor=#FF3333;fontColor=default;endFill=1;curved=1;entryX=0;entryY=0.5;entryDx=0;entryDy=0;exitX=1;exitY=0.5;exitDx=0;exitDy=0;" parent="1" edge="1">
          <mxGeometry width="50" height="50" relative="1" as="geometry">
            <mxPoint x="-490" y="720" as="sourcePoint" />
            <mxPoint x="-335" y="486.34000000000015" as="targetPoint" />
          </mxGeometry>
        </mxCell>
        <mxCell id="xFDWZydJ_4FfnXVutMAn-35" value="" style="group;rounded=1;sketch=1;curveFitting=1;jiggle=2;labelBackgroundColor=none;fontColor=#393C56;" parent="1" vertex="1" connectable="0">
          <mxGeometry x="-1200" y="413.67" width="130" height="86.33" as="geometry" />
        </mxCell>
        <mxCell id="xFDWZydJ_4FfnXVutMAn-36" value="" style="shape=note;whiteSpace=wrap;html=1;backgroundOutline=1;darkOpacity=0.05;size=15;rounded=1;sketch=1;curveFitting=1;jiggle=2;labelBackgroundColor=none;fillColor=#F2CC8F;strokeColor=#E07A5F;fontColor=#393C56;" parent="xFDWZydJ_4FfnXVutMAn-35" vertex="1">
          <mxGeometry width="108.65671641791045" height="75.91834170854274" as="geometry" />
        </mxCell>
        <mxCell id="xFDWZydJ_4FfnXVutMAn-37" value="" style="shape=note;whiteSpace=wrap;html=1;backgroundOutline=1;darkOpacity=0.05;size=15;rounded=1;sketch=1;curveFitting=1;jiggle=2;labelBackgroundColor=none;fillColor=#F2CC8F;strokeColor=#E07A5F;fontColor=#393C56;" parent="xFDWZydJ_4FfnXVutMAn-35" vertex="1">
          <mxGeometry x="9.701492537313433" y="5.205829145728645" width="108.65671641791045" height="75.91834170854274" as="geometry" />
        </mxCell>
        <mxCell id="xFDWZydJ_4FfnXVutMAn-38" value="" style="shape=note;whiteSpace=wrap;html=1;backgroundOutline=1;darkOpacity=0.05;size=15;rounded=1;sketch=1;curveFitting=1;jiggle=2;labelBackgroundColor=none;fillColor=#F2CC8F;strokeColor=#E07A5F;fontColor=#393C56;" parent="xFDWZydJ_4FfnXVutMAn-35" vertex="1">
          <mxGeometry x="21.34328358208955" y="10.41165829145729" width="108.65671641791045" height="75.91834170854274" as="geometry" />
        </mxCell>
        <mxCell id="xFDWZydJ_4FfnXVutMAn-39" value="&lt;font style=&quot;font-size: 15px;&quot;&gt;.osrm_geometry&lt;/font&gt;" style="text;html=1;strokeColor=none;fillColor=none;align=center;verticalAlign=middle;whiteSpace=wrap;rounded=0;fontSize=20;fontFamily=Comic Sans MS;fontColor=#393C56;fontStyle=0" parent="1" vertex="1">
          <mxGeometry x="-1176.5" y="499.99999999999994" width="60" height="30" as="geometry" />
        </mxCell>
        <mxCell id="xFDWZydJ_4FfnXVutMAn-86" value="&lt;font color=&quot;#1a1a1a&quot;&gt;Find Candidates&lt;/font&gt;" style="rounded=1;whiteSpace=wrap;html=1;sketch=1;hachureGap=4;jiggle=2;curveFitting=1;strokeColor=#006EAF;fontFamily=Architects Daughter;fontSource=https%3A%2F%2Ffonts.googleapis.com%2Fcss%3Ffamily%3DArchitects%2BDaughter;fontSize=17;fontColor=#ffffff;fillColor=#1ba1e2;fontStyle=1" parent="1" vertex="1">
          <mxGeometry x="-381.58" y="400.00000000000006" width="250" height="60" as="geometry" />
        </mxCell>
        <mxCell id="xFDWZydJ_4FfnXVutMAn-88" value="&lt;div style=&quot;color: rgb(8, 8, 8); font-size: 17px;&quot;&gt;&lt;div style=&quot;font-size: 17px;&quot;&gt;Launcher&lt;/div&gt;&lt;/div&gt;" style="rounded=1;whiteSpace=wrap;html=1;sketch=1;hachureGap=4;jiggle=2;curveFitting=1;strokeColor=#23445d;fontFamily=Architects Daughter;fontSource=https%3A%2F%2Ffonts.googleapis.com%2Fcss%3Ffamily%3DArchitects%2BDaughter;fontSize=17;fillColor=#bac8d3;fontStyle=1;" parent="1" vertex="1">
          <mxGeometry x="-830" y="80" width="180" height="100" as="geometry" />
        </mxCell>
        <mxCell id="f_UtuRoIYT_ADSGkkad1-18" value="&lt;font color=&quot;#000000&quot;&gt;Geometry Loader&lt;/font&gt;" style="rounded=0;whiteSpace=wrap;html=1;hachureGap=4;strokeColor=#666666;fontFamily=Architects Daughter;fontSource=https%3A%2F%2Ffonts.googleapis.com%2Fcss%3Ffamily%3DArchitects%2BDaughter;fontSize=20;fontColor=#333333;fillColor=#f5f5f5;rotation=90;sketch=1;curveFitting=1;jiggle=2;verticalAlign=top;" parent="1" vertex="1">
          <mxGeometry x="-1096.83" y="333.17" width="300" height="113.67" as="geometry" />
        </mxCell>
        <mxCell id="eqD2ooCh8LvzhkOTFMkU-2" value="" style="group;fontFamily=Architects Daughter;fontSource=https%3A%2F%2Ffonts.googleapis.com%2Fcss%3Ffamily%3DArchitects%2BDaughter;verticalAlign=middle;" parent="1" vertex="1" connectable="0">
          <mxGeometry x="-630" y="80" width="560" height="103.67" as="geometry" />
        </mxCell>
        <mxCell id="eqD2ooCh8LvzhkOTFMkU-3" value="I/O Adapter" style="shape=process;whiteSpace=wrap;html=1;backgroundOutline=1;sketch=1;hachureGap=4;jiggle=2;curveFitting=1;strokeColor=#E07A5F;fontFamily=Architects Daughter;fontSource=https%3A%2F%2Ffonts.googleapis.com%2Fcss%3Ffamily%3DArchitects%2BDaughter;fontSize=20;fontColor=#393C56;fillColor=#F2CC8F;verticalAlign=top;size=0.06779661016949153;" parent="eqD2ooCh8LvzhkOTFMkU-2" vertex="1">
          <mxGeometry width="560" height="103.67000000000004" as="geometry" />
        </mxCell>
        <mxCell id="eqD2ooCh8LvzhkOTFMkU-4" value="Http(s)" style="rounded=1;whiteSpace=wrap;html=1;sketch=1;hachureGap=4;jiggle=2;curveFitting=1;strokeColor=#E07A5F;fontFamily=Architects Daughter;fontSource=https%3A%2F%2Ffonts.googleapis.com%2Fcss%3Ffamily%3DArchitects%2BDaughter;fontSize=20;fontColor=#393C56;fillColor=#F2CC8F;" parent="eqD2ooCh8LvzhkOTFMkU-2" vertex="1">
          <mxGeometry x="50" y="66.32999999999996" width="87.5" height="33.670000000000016" as="geometry" />
        </mxCell>
        <mxCell id="eqD2ooCh8LvzhkOTFMkU-5" value="gRPC" style="rounded=1;whiteSpace=wrap;html=1;sketch=1;hachureGap=4;jiggle=2;curveFitting=1;strokeColor=#E07A5F;fontFamily=Architects Daughter;fontSource=https%3A%2F%2Ffonts.googleapis.com%2Fcss%3Ffamily%3DArchitects%2BDaughter;fontSize=20;fontColor=#393C56;fillColor=#F2CC8F;" parent="eqD2ooCh8LvzhkOTFMkU-2" vertex="1">
          <mxGeometry x="161.25" y="66.32999999999996" width="87.5" height="33.670000000000016" as="geometry" />
        </mxCell>
        <mxCell id="eqD2ooCh8LvzhkOTFMkU-6" value="AMQP" style="rounded=1;whiteSpace=wrap;html=1;sketch=1;hachureGap=4;jiggle=2;curveFitting=1;strokeColor=#E07A5F;fontFamily=Architects Daughter;fontSource=https%3A%2F%2Ffonts.googleapis.com%2Fcss%3Ffamily%3DArchitects%2BDaughter;fontSize=20;fontColor=#393C56;fillColor=#F2CC8F;" parent="eqD2ooCh8LvzhkOTFMkU-2" vertex="1">
          <mxGeometry x="290" y="66.32999999999996" width="87.5" height="33.670000000000016" as="geometry" />
        </mxCell>
        <mxCell id="eqD2ooCh8LvzhkOTFMkU-7" value="Simple(Redis)" style="rounded=1;whiteSpace=wrap;html=1;sketch=1;hachureGap=4;jiggle=2;curveFitting=1;strokeColor=#E07A5F;fontFamily=Architects Daughter;fontSource=https%3A%2F%2Ffonts.googleapis.com%2Fcss%3Ffamily%3DArchitects%2BDaughter;fontSize=20;fontColor=#393C56;fillColor=#F2CC8F;" parent="eqD2ooCh8LvzhkOTFMkU-2" vertex="1">
          <mxGeometry x="410" y="66.32999999999996" width="87.5" height="33.670000000000016" as="geometry" />
        </mxCell>
        <mxCell id="eqD2ooCh8LvzhkOTFMkU-11" value="&lt;font style=&quot;font-size: 17px;&quot; data-font-src=&quot;https://fonts.googleapis.com/css?family=Architects+Daughter&quot; face=&quot;Architects Daughter&quot;&gt;&lt;b&gt;PostGis&lt;/b&gt;&lt;/font&gt;" style="shape=cylinder3;whiteSpace=wrap;html=1;boundedLbl=1;backgroundOutline=1;size=15;sketch=1;curveFitting=1;jiggle=2;fillColor=#f0a30a;strokeColor=#BD7000;fontColor=#000000;" parent="1" vertex="1">
          <mxGeometry x="-1200" y="273.67" width="130" height="110" as="geometry" />
        </mxCell>
        <mxCell id="eqD2ooCh8LvzhkOTFMkU-19" value="DB Loader" style="rounded=1;whiteSpace=wrap;html=1;sketch=1;hachureGap=4;jiggle=2;curveFitting=1;strokeColor=#6c8ebf;fontFamily=Architects Daughter;fontSource=https%3A%2F%2Ffonts.googleapis.com%2Fcss%3Ffamily%3DArchitects%2BDaughter;fontSize=20;fillColor=#dae8fc;horizontal=0;rotation=-182;" parent="1" vertex="1">
          <mxGeometry x="-990" y="273.67" width="60" height="110" as="geometry" />
        </mxCell>
        <mxCell id="eqD2ooCh8LvzhkOTFMkU-18" value="File Loader" style="rounded=1;whiteSpace=wrap;html=1;sketch=1;hachureGap=4;jiggle=2;curveFitting=1;strokeColor=#6c8ebf;fontFamily=Architects Daughter;fontSource=https%3A%2F%2Ffonts.googleapis.com%2Fcss%3Ffamily%3DArchitects%2BDaughter;fontSize=20;fillColor=#dae8fc;horizontal=0;rotation=-182;" parent="1" vertex="1">
          <mxGeometry x="-990" y="413.67" width="60" height="110" as="geometry" />
        </mxCell>
        <mxCell id="5Od2gk_amHRYto03MtOO-2" value="" style="endArrow=block;html=1;rounded=1;strokeWidth=2;sketch=1;curveFitting=1;jiggle=2;labelBackgroundColor=none;strokeColor=#0000FF;fontColor=default;endFill=1;entryX=1.015;entryY=0.617;entryDx=0;entryDy=0;entryPerimeter=0;exitX=0.993;exitY=0.611;exitDx=0;exitDy=0;exitPerimeter=0;" parent="1" source="eqD2ooCh8LvzhkOTFMkU-19" target="eqD2ooCh8LvzhkOTFMkU-11" edge="1">
          <mxGeometry width="50" height="50" relative="1" as="geometry">
            <mxPoint x="-1030" y="240" as="sourcePoint" />
            <mxPoint x="-630" y="681.8299999999999" as="targetPoint" />
          </mxGeometry>
        </mxCell>
        <mxCell id="5Od2gk_amHRYto03MtOO-3" value="" style="endArrow=block;html=1;rounded=1;strokeWidth=2;sketch=1;curveFitting=1;jiggle=2;labelBackgroundColor=none;strokeColor=#0000FF;fontColor=default;endFill=1;entryX=0;entryY=0;entryDx=108.65671641791045;entryDy=45.45917085427137;entryPerimeter=0;exitX=1;exitY=0.75;exitDx=0;exitDy=0;" parent="1" source="eqD2ooCh8LvzhkOTFMkU-18" target="xFDWZydJ_4FfnXVutMAn-38" edge="1">
          <mxGeometry width="50" height="50" relative="1" as="geometry">
            <mxPoint x="-1040" y="410" as="sourcePoint" />
            <mxPoint x="-980" y="339.67" as="targetPoint" />
          </mxGeometry>
        </mxCell>
        <mxCell id="5Od2gk_amHRYto03MtOO-4" value="" style="endArrow=block;html=1;rounded=1;strokeWidth=2;sketch=1;curveFitting=1;jiggle=2;labelBackgroundColor=none;strokeColor=#0000FF;fontColor=default;endFill=1;exitX=0.5;exitY=1;exitDx=0;exitDy=0;entryX=0.296;entryY=-0.025;entryDx=0;entryDy=0;entryPerimeter=0;" parent="1" source="xFDWZydJ_4FfnXVutMAn-88" target="xFDWZydJ_4FfnXVutMAn-10" edge="1">
          <mxGeometry width="50" height="50" relative="1" as="geometry">
            <mxPoint x="-1061" y="475" as="sourcePoint" />
            <mxPoint x="-980" y="482" as="targetPoint" />
          </mxGeometry>
        </mxCell>
        <mxCell id="5Od2gk_amHRYto03MtOO-6" value="&lt;font data-font-src=&quot;https://fonts.googleapis.com/css?family=Architects+Daughter&quot; face=&quot;Architects Daughter&quot;&gt;1&lt;/font&gt;" style="ellipse;whiteSpace=wrap;html=1;aspect=fixed;sketch=1;curveFitting=1;jiggle=2;fillColor=#e51400;fontColor=#000000;strokeColor=#B20000;fontStyle=1;fontSize=18;" parent="1" vertex="1">
          <mxGeometry x="-780" y="200.16" width="30" height="30" as="geometry" />
        </mxCell>
        <mxCell id="5Od2gk_amHRYto03MtOO-7" value="" style="endArrow=block;html=1;rounded=1;strokeWidth=2;sketch=1;curveFitting=1;jiggle=2;labelBackgroundColor=none;strokeColor=#FF3333;fontColor=default;endFill=1;edgeStyle=orthogonalEdgeStyle;curved=1;exitX=0.5;exitY=1;exitDx=0;exitDy=0;" parent="1" source="xFDWZydJ_4FfnXVutMAn-6" target="eqD2ooCh8LvzhkOTFMkU-3" edge="1">
          <mxGeometry width="50" height="50" relative="1" as="geometry">
            <mxPoint x="-750" y="192" as="sourcePoint" />
            <mxPoint x="-937" y="256" as="targetPoint" />
          </mxGeometry>
        </mxCell>
        <mxCell id="5Od2gk_amHRYto03MtOO-8" value="" style="endArrow=block;html=1;rounded=1;strokeWidth=2;sketch=1;curveFitting=1;jiggle=2;labelBackgroundColor=none;strokeColor=#FF3333;fontColor=default;endFill=1;edgeStyle=orthogonalEdgeStyle;curved=1;entryX=0.5;entryY=0;entryDx=0;entryDy=0;exitX=0.5;exitY=1;exitDx=0;exitDy=0;" parent="1" source="5Od2gk_amHRYto03MtOO-22" target="xFDWZydJ_4FfnXVutMAn-86" edge="1">
          <mxGeometry width="50" height="50" relative="1" as="geometry">
            <mxPoint x="-580" y="330" as="sourcePoint" />
            <mxPoint x="-655" y="376" as="targetPoint" />
          </mxGeometry>
        </mxCell>
        <mxCell id="5Od2gk_amHRYto03MtOO-17" value="" style="group" parent="1" vertex="1" connectable="0">
          <mxGeometry x="-25" y="460" width="450" height="260" as="geometry" />
        </mxCell>
        <mxCell id="xFDWZydJ_4FfnXVutMAn-3" value="" style="rounded=1;whiteSpace=wrap;html=1;sketch=1;curveFitting=1;jiggle=2;labelBackgroundColor=none;fillColor=#d5e8d4;strokeColor=#82b366;fontFamily=Architects Daughter;fontSource=https%3A%2F%2Ffonts.googleapis.com%2Fcss%3Ffamily%3DArchitects%2BDaughter;" parent="5Od2gk_amHRYto03MtOO-17" vertex="1">
          <mxGeometry width="450" height="260" as="geometry" />
        </mxCell>
        <mxCell id="xFDWZydJ_4FfnXVutMAn-4" value="&lt;b&gt;Spatial Index&lt;/b&gt;" style="text;html=1;strokeColor=none;fillColor=none;align=center;verticalAlign=middle;whiteSpace=wrap;rounded=0;fontSize=20;fontFamily=Architects Daughter;fontColor=#393C56;fontSource=https%3A%2F%2Ffonts.googleapis.com%2Fcss%3Ffamily%3DArchitects%2BDaughter;" parent="5Od2gk_amHRYto03MtOO-17" vertex="1">
          <mxGeometry x="280" width="160" height="30" as="geometry" />
        </mxCell>
        <mxCell id="xFDWZydJ_4FfnXVutMAn-51" value="&lt;div style=&quot;color: rgb(8, 8, 8); font-size: 17px;&quot;&gt;&lt;div style=&quot;font-size: 17px;&quot;&gt;ProcessRoadGeometry&lt;/div&gt;&lt;div style=&quot;font-size: 17px;&quot;&gt;(MBB)&lt;/div&gt;&lt;/div&gt;" style="rounded=1;whiteSpace=wrap;html=1;sketch=1;hachureGap=4;jiggle=2;curveFitting=1;strokeColor=#BD7000;fontFamily=Architects Daughter;fontSource=https%3A%2F%2Ffonts.googleapis.com%2Fcss%3Ffamily%3DArchitects%2BDaughter;fontSize=17;fillColor=#f0a30a;fontStyle=1;fontColor=#000000;" parent="5Od2gk_amHRYto03MtOO-17" vertex="1">
          <mxGeometry x="50" y="166.32999999999998" width="320" height="60" as="geometry" />
        </mxCell>
        <mxCell id="xFDWZydJ_4FfnXVutMAn-80" value="" style="group;fontFamily=Architects Daughter;fontSource=https%3A%2F%2Ffonts.googleapis.com%2Fcss%3Ffamily%3DArchitects%2BDaughter;verticalAlign=middle;" parent="5Od2gk_amHRYto03MtOO-17" vertex="1" connectable="0">
          <mxGeometry x="50" y="40.00000000000006" width="320" height="103.66999999999996" as="geometry" />
        </mxCell>
        <mxCell id="xFDWZydJ_4FfnXVutMAn-81" value="Index Facade" style="shape=process;whiteSpace=wrap;html=1;backgroundOutline=1;sketch=1;hachureGap=4;jiggle=2;curveFitting=1;strokeColor=#E07A5F;fontFamily=Architects Daughter;fontSource=https%3A%2F%2Ffonts.googleapis.com%2Fcss%3Ffamily%3DArchitects%2BDaughter;fontSize=20;fontColor=#393C56;fillColor=#F2CC8F;verticalAlign=top;" parent="xFDWZydJ_4FfnXVutMAn-80" vertex="1">
          <mxGeometry width="320" height="103.67" as="geometry" />
        </mxCell>
        <mxCell id="xFDWZydJ_4FfnXVutMAn-82" value="&lt;font style=&quot;font-size: 17px;&quot;&gt;&lt;b&gt;RTree&lt;/b&gt;&lt;/font&gt;" style="rounded=1;whiteSpace=wrap;html=1;sketch=1;hachureGap=4;jiggle=2;curveFitting=1;strokeColor=#E07A5F;fontFamily=Architects Daughter;fontSource=https%3A%2F%2Ffonts.googleapis.com%2Fcss%3Ffamily%3DArchitects%2BDaughter;fontSize=20;fontColor=#393C56;fillColor=#F2CC8F;" parent="xFDWZydJ_4FfnXVutMAn-80" vertex="1">
          <mxGeometry x="50" y="50" width="100" height="50" as="geometry" />
        </mxCell>
        <mxCell id="xFDWZydJ_4FfnXVutMAn-84" value="&lt;font style=&quot;font-size: 17px;&quot;&gt;&lt;b&gt;QuadTree&lt;/b&gt;&lt;/font&gt;" style="rounded=1;whiteSpace=wrap;html=1;sketch=1;hachureGap=4;jiggle=2;curveFitting=1;strokeColor=#E07A5F;fontFamily=Architects Daughter;fontSource=https%3A%2F%2Ffonts.googleapis.com%2Fcss%3Ffamily%3DArchitects%2BDaughter;fontSize=20;fontColor=#393C56;fillColor=#F2CC8F;" parent="xFDWZydJ_4FfnXVutMAn-80" vertex="1">
          <mxGeometry x="170" y="50" width="100" height="50" as="geometry" />
        </mxCell>
        <mxCell id="5Od2gk_amHRYto03MtOO-19" value="&lt;font color=&quot;#1a1a1a&quot;&gt;Route&lt;/font&gt;" style="rounded=1;whiteSpace=wrap;html=1;sketch=1;hachureGap=4;jiggle=2;curveFitting=1;strokeColor=#006EAF;fontFamily=Architects Daughter;fontSource=https%3A%2F%2Ffonts.googleapis.com%2Fcss%3Ffamily%3DArchitects%2BDaughter;fontSize=17;fontColor=#ffffff;fillColor=#1ba1e2;fontStyle=1" parent="1" vertex="1">
          <mxGeometry x="-760" y="604.01" width="250" height="60" as="geometry" />
        </mxCell>
        <mxCell id="5Od2gk_amHRYto03MtOO-20" value="&lt;font color=&quot;#000000&quot;&gt;KState&amp;nbsp;&lt;/font&gt;" style="rounded=1;whiteSpace=wrap;html=1;sketch=1;hachureGap=4;jiggle=2;curveFitting=1;strokeColor=#006EAF;fontFamily=Architects Daughter;fontSource=https%3A%2F%2Ffonts.googleapis.com%2Fcss%3Ffamily%3DArchitects%2BDaughter;fontSize=17;fontColor=#ffffff;fillColor=#1ba1e2;fontStyle=1" parent="1" vertex="1">
          <mxGeometry x="-750" y="400" width="250" height="60" as="geometry" />
        </mxCell>
        <mxCell id="5Od2gk_amHRYto03MtOO-22" value="&lt;font color=&quot;#000000&quot;&gt;Kalman Filter&lt;/font&gt;" style="rounded=1;whiteSpace=wrap;html=1;sketch=1;hachureGap=4;jiggle=2;curveFitting=1;strokeColor=#006EAF;fontFamily=Architects Daughter;fontSource=https%3A%2F%2Ffonts.googleapis.com%2Fcss%3Ffamily%3DArchitects%2BDaughter;fontSize=17;fontColor=#ffffff;fillColor=#1ba1e2;fontStyle=1" parent="1" vertex="1">
          <mxGeometry x="-381.58000000000004" y="290" width="250" height="60" as="geometry" />
        </mxCell>
        <mxCell id="pkcKgWBn9AJ6n5Au9ZQS-2" value="" style="endArrow=block;html=1;rounded=1;strokeWidth=2;sketch=1;curveFitting=1;jiggle=2;labelBackgroundColor=none;strokeColor=#FF3333;fontColor=default;endFill=1;edgeStyle=orthogonalEdgeStyle;curved=1;entryX=0.5;entryY=0;entryDx=0;entryDy=0;" parent="1" source="eqD2ooCh8LvzhkOTFMkU-3" target="5Od2gk_amHRYto03MtOO-22" edge="1">
          <mxGeometry width="50" height="50" relative="1" as="geometry">
            <mxPoint x="-300" as="sourcePoint" />
            <mxPoint x="-340" y="90" as="targetPoint" />
          </mxGeometry>
        </mxCell>
        <mxCell id="pkcKgWBn9AJ6n5Au9ZQS-3" style="edgeStyle=orthogonalEdgeStyle;rounded=0;orthogonalLoop=1;jettySize=auto;html=1;exitX=0.5;exitY=1;exitDx=0;exitDy=0;" parent="1" source="5Od2gk_amHRYto03MtOO-19" target="5Od2gk_amHRYto03MtOO-19" edge="1">
          <mxGeometry relative="1" as="geometry" />
        </mxCell>
        <mxCell id="NcBjf0CyMoujfNzTpkwe-8" value="" style="group" parent="1" vertex="1" connectable="0">
          <mxGeometry x="-1290" y="570" width="420" height="150" as="geometry" />
        </mxCell>
        <mxCell id="NcBjf0CyMoujfNzTpkwe-5" value="" style="rounded=1;whiteSpace=wrap;html=1;sketch=1;curveFitting=1;jiggle=2;labelBackgroundColor=none;fillColor=#eeeeee;strokeColor=#36393d;" parent="NcBjf0CyMoujfNzTpkwe-8" vertex="1">
          <mxGeometry width="420" height="149.99999999999997" as="geometry" />
        </mxCell>
        <mxCell id="NcBjf0CyMoujfNzTpkwe-6" value="&lt;b&gt;Identity Storage&lt;/b&gt;" style="text;html=1;strokeColor=none;fillColor=none;align=center;verticalAlign=middle;whiteSpace=wrap;rounded=0;fontSize=20;fontFamily=Architects Daughter;fontColor=#393C56;" parent="NcBjf0CyMoujfNzTpkwe-8" vertex="1">
          <mxGeometry x="234.23076923076923" width="173.41961538461538" height="29.68533544429052" as="geometry" />
        </mxCell>
        <mxCell id="NcBjf0CyMoujfNzTpkwe-2" value="&lt;font style=&quot;font-size: 17px;&quot; data-font-src=&quot;https://fonts.googleapis.com/css?family=Architects+Daughter&quot; face=&quot;Architects Daughter&quot;&gt;&lt;b&gt;Redis&lt;/b&gt;&lt;/font&gt;" style="shape=cylinder3;whiteSpace=wrap;html=1;boundedLbl=1;backgroundOutline=1;size=15;sketch=1;curveFitting=1;jiggle=2;fillColor=#f0a30a;strokeColor=#BD7000;fontColor=#000000;" parent="NcBjf0CyMoujfNzTpkwe-8" vertex="1">
          <mxGeometry x="43.24" y="26.31" width="136.76" height="108.85" as="geometry" />
        </mxCell>
        <mxCell id="pkcKgWBn9AJ6n5Au9ZQS-1" value="Local Memory" style="shape=dataStorage;whiteSpace=wrap;html=1;fixedSize=1;sketch=1;hachureGap=4;jiggle=2;curveFitting=1;strokeColor=#2D7600;fontFamily=Architects Daughter;fontSource=https%3A%2F%2Ffonts.googleapis.com%2Fcss%3Ffamily%3DArchitects%2BDaughter;fontSize=17;fontColor=#1A1A1A;fillColor=#60a917;fontStyle=1;labelBackgroundColor=default;size=10;" parent="NcBjf0CyMoujfNzTpkwe-8" vertex="1">
          <mxGeometry x="217.64999999999998" y="41.08000000000004" width="190" height="79.32" as="geometry" />
        </mxCell>
        <mxCell id="L_Y6EMrfKergG43lPM6N-6" value="" style="group" parent="1" vertex="1" connectable="0">
          <mxGeometry x="-420.00000000000006" y="530" width="326.83000000000004" height="170" as="geometry" />
        </mxCell>
        <mxCell id="L_Y6EMrfKergG43lPM6N-2" value="" style="rounded=1;whiteSpace=wrap;html=1;sketch=1;curveFitting=1;jiggle=2;labelBackgroundColor=none;fillColor=#eeeeee;strokeColor=#36393d;container=0;" parent="L_Y6EMrfKergG43lPM6N-6" vertex="1">
          <mxGeometry y="-20" width="326.83" height="190" as="geometry" />
        </mxCell>
        <mxCell id="o8q_k3Gf0rgQPZPbO9AG-1" value="&lt;font color=&quot;#000000&quot;&gt;Emission Probability&lt;/font&gt;" style="rounded=1;whiteSpace=wrap;html=1;sketch=1;hachureGap=4;jiggle=2;curveFitting=1;strokeColor=#006EAF;fontFamily=Architects Daughter;fontSource=https%3A%2F%2Ffonts.googleapis.com%2Fcss%3Ffamily%3DArchitects%2BDaughter;fontSize=17;fontColor=#ffffff;fillColor=#1ba1e2;fontStyle=1" parent="L_Y6EMrfKergG43lPM6N-6" vertex="1">
          <mxGeometry x="38.420000000000044" y="9.999999999999844" width="250" height="40" as="geometry" />
        </mxCell>
        <mxCell id="9MwaEUoJGDAaUtptHg1z-1" value="&lt;font color=&quot;#000000&quot;&gt;Transition Probability&lt;/font&gt;" style="rounded=1;whiteSpace=wrap;html=1;sketch=1;hachureGap=4;jiggle=2;curveFitting=1;strokeColor=#006EAF;fontFamily=Architects Daughter;fontSource=https%3A%2F%2Ffonts.googleapis.com%2Fcss%3Ffamily%3DArchitects%2BDaughter;fontSize=17;fontColor=#ffffff;fillColor=#1ba1e2;fontStyle=1" parent="L_Y6EMrfKergG43lPM6N-6" vertex="1">
          <mxGeometry x="38.420000000000044" y="59.999999999999986" width="250" height="40" as="geometry" />
        </mxCell>
        <mxCell id="BJ02o5zEWki5oxR8saz3-27" value="&lt;font color=&quot;#000000&quot;&gt;Estimate&lt;/font&gt;" style="rounded=1;whiteSpace=wrap;html=1;sketch=1;hachureGap=4;jiggle=2;curveFitting=1;strokeColor=#006EAF;fontFamily=Architects Daughter;fontSource=https%3A%2F%2Ffonts.googleapis.com%2Fcss%3Ffamily%3DArchitects%2BDaughter;fontSize=17;fontColor=#ffffff;fillColor=#1ba1e2;fontStyle=1" parent="L_Y6EMrfKergG43lPM6N-6" vertex="1">
          <mxGeometry x="38.420000000000016" y="110" width="250" height="40" as="geometry" />
        </mxCell>
        <mxCell id="ok6SP5j5Uv-QlgGWpWEk-1" value="" style="endArrow=block;html=1;rounded=1;strokeWidth=2;sketch=1;curveFitting=1;jiggle=2;labelBackgroundColor=none;strokeColor=#FF3333;fontColor=default;endFill=1;edgeStyle=orthogonalEdgeStyle;curved=1;exitX=0;exitY=0;exitDx=0;exitDy=0;entryX=1;entryY=0.5;entryDx=0;entryDy=0;" parent="1" source="xFDWZydJ_4FfnXVutMAn-86" target="xFDWZydJ_4FfnXVutMAn-10" edge="1">
          <mxGeometry width="50" height="50" relative="1" as="geometry">
            <mxPoint x="-280" y="300" as="sourcePoint" />
            <mxPoint x="-185" y="340" as="targetPoint" />
          </mxGeometry>
        </mxCell>
        <mxCell id="L_Y6EMrfKergG43lPM6N-7" value="" style="endArrow=block;html=1;rounded=1;strokeWidth=2;sketch=1;curveFitting=1;jiggle=2;labelBackgroundColor=none;strokeColor=#FF3333;fontColor=default;endFill=1;edgeStyle=orthogonalEdgeStyle;curved=1;exitX=0;exitY=0.5;exitDx=0;exitDy=0;entryX=1;entryY=0.5;entryDx=0;entryDy=0;" parent="1" source="5Od2gk_amHRYto03MtOO-20" target="NcBjf0CyMoujfNzTpkwe-5" edge="1">
          <mxGeometry width="50" height="50" relative="1" as="geometry">
            <mxPoint x="-405" y="330" as="sourcePoint" />
            <mxPoint x="-770" y="586" as="targetPoint" />
            <Array as="points">
              <mxPoint x="-800" y="430" />
              <mxPoint x="-800" y="645" />
            </Array>
          </mxGeometry>
        </mxCell>
        <mxCell id="ok6SP5j5Uv-QlgGWpWEk-5" value="&lt;font style=&quot;&quot; color=&quot;#1a1a1a&quot;&gt;Graph&lt;/font&gt;" style="rounded=1;whiteSpace=wrap;html=1;sketch=1;hachureGap=4;jiggle=2;curveFitting=1;strokeColor=#006EAF;fontFamily=Architects Daughter;fontSource=https%3A%2F%2Ffonts.googleapis.com%2Fcss%3Ffamily%3DArchitects%2BDaughter;fontSize=17;fontColor=#ffffff;fillColor=#1ba1e2;fontStyle=1" parent="1" vertex="1">
          <mxGeometry x="-760" y="500.00000000000006" width="250" height="60" as="geometry" />
        </mxCell>
        <mxCell id="ok6SP5j5Uv-QlgGWpWEk-7" value="" style="endArrow=block;html=1;rounded=1;strokeWidth=2;sketch=1;curveFitting=1;jiggle=2;labelBackgroundColor=none;strokeColor=#FF3333;fontColor=default;endFill=1;edgeStyle=orthogonalEdgeStyle;curved=1;exitX=0.5;exitY=0;exitDx=0;exitDy=0;entryX=0.436;entryY=0.967;entryDx=0;entryDy=0;entryPerimeter=0;" parent="1" source="5Od2gk_amHRYto03MtOO-19" target="ok6SP5j5Uv-QlgGWpWEk-5" edge="1">
          <mxGeometry width="50" height="50" relative="1" as="geometry">
            <mxPoint x="-360" y="390" as="sourcePoint" />
            <mxPoint x="-595" y="500" as="targetPoint" />
          </mxGeometry>
        </mxCell>
        <mxCell id="ok6SP5j5Uv-QlgGWpWEk-9" value="" style="endArrow=block;html=1;rounded=1;strokeWidth=2;sketch=1;curveFitting=1;jiggle=2;labelBackgroundColor=none;strokeColor=#FF3333;fontColor=default;endFill=1;edgeStyle=orthogonalEdgeStyle;curved=1;exitX=0.5;exitY=1;exitDx=0;exitDy=0;entryX=0.151;entryY=-0.033;entryDx=0;entryDy=0;entryPerimeter=0;" parent="1" source="xFDWZydJ_4FfnXVutMAn-86" target="L_Y6EMrfKergG43lPM6N-4" edge="1">
          <mxGeometry width="50" height="50" relative="1" as="geometry">
            <mxPoint x="-360" y="390" as="sourcePoint" />
            <mxPoint x="-460" y="400" as="targetPoint" />
          </mxGeometry>
        </mxCell>
        <mxCell id="ok6SP5j5Uv-QlgGWpWEk-10" value="" style="endArrow=block;html=1;rounded=1;strokeWidth=2;sketch=1;curveFitting=1;jiggle=2;labelBackgroundColor=none;strokeColor=#FF3333;fontColor=default;endFill=1;edgeStyle=orthogonalEdgeStyle;curved=1;exitX=0;exitY=0.5;exitDx=0;exitDy=0;entryX=1;entryY=0.5;entryDx=0;entryDy=0;" parent="1" source="9MwaEUoJGDAaUtptHg1z-1" target="5Od2gk_amHRYto03MtOO-19" edge="1">
          <mxGeometry width="50" height="50" relative="1" as="geometry">
            <mxPoint x="-360" y="390" as="sourcePoint" />
            <mxPoint x="-460" y="400" as="targetPoint" />
          </mxGeometry>
        </mxCell>
        <mxCell id="EAuhjejsASApz1Mb83za-1" value="" style="endArrow=block;html=1;rounded=1;strokeWidth=2;sketch=1;curveFitting=1;jiggle=2;labelBackgroundColor=none;strokeColor=#0000FF;fontColor=default;endFill=1;exitX=0;exitY=0.5;exitDx=0;exitDy=0;entryX=0.275;entryY=-0.018;entryDx=0;entryDy=0;entryPerimeter=0;" parent="1" source="xFDWZydJ_4FfnXVutMAn-10" target="f_UtuRoIYT_ADSGkkad1-18" edge="1">
          <mxGeometry width="50" height="50" relative="1" as="geometry">
            <mxPoint x="-750" y="192" as="sourcePoint" />
            <mxPoint x="-698" y="270" as="targetPoint" />
          </mxGeometry>
        </mxCell>
        <mxCell id="EAuhjejsASApz1Mb83za-3" value="" style="endArrow=block;html=1;rounded=1;strokeWidth=2;sketch=1;curveFitting=1;jiggle=2;labelBackgroundColor=none;strokeColor=#FF3333;fontColor=default;endFill=1;edgeStyle=orthogonalEdgeStyle;curved=1;exitX=0;exitY=0.5;exitDx=0;exitDy=0;" parent="1" source="xFDWZydJ_4FfnXVutMAn-86" target="5Od2gk_amHRYto03MtOO-20" edge="1">
          <mxGeometry width="50" height="50" relative="1" as="geometry">
            <mxPoint x="-372" y="430" as="sourcePoint" />
            <mxPoint x="-553" y="330" as="targetPoint" />
          </mxGeometry>
        </mxCell>
        <mxCell id="5Od2gk_amHRYto03MtOO-21" value="" style="endArrow=block;html=1;rounded=1;strokeWidth=2;sketch=1;curveFitting=1;jiggle=2;labelBackgroundColor=none;strokeColor=#FF3333;fontColor=default;endFill=1;edgeStyle=orthogonalEdgeStyle;curved=1;exitX=1;exitY=0.5;exitDx=0;exitDy=0;entryX=0;entryY=0.5;entryDx=0;entryDy=0;" parent="1" source="o8q_k3Gf0rgQPZPbO9AG-1" target="xFDWZydJ_4FfnXVutMAn-81" edge="1">
          <mxGeometry width="50" height="50" relative="1" as="geometry">
            <mxPoint x="-530" y="300" as="sourcePoint" />
            <mxPoint x="-440" y="300" as="targetPoint" />
          </mxGeometry>
        </mxCell>
        <mxCell id="BJ02o5zEWki5oxR8saz3-13" value="&lt;font data-font-src=&quot;https://fonts.googleapis.com/css?family=Architects+Daughter&quot; face=&quot;Architects Daughter&quot;&gt;2&lt;/font&gt;" style="ellipse;whiteSpace=wrap;html=1;aspect=fixed;sketch=1;curveFitting=1;jiggle=2;fillColor=#e51400;fontColor=#000000;strokeColor=#B20000;fontStyle=1;fontSize=18;" parent="1" vertex="1">
          <mxGeometry x="-320" y="50" width="30" height="30" as="geometry" />
        </mxCell>
        <mxCell id="BJ02o5zEWki5oxR8saz3-15" value="&lt;font data-font-src=&quot;https://fonts.googleapis.com/css?family=Architects+Daughter&quot; face=&quot;Architects Daughter&quot;&gt;2.1&lt;/font&gt;" style="ellipse;whiteSpace=wrap;html=1;aspect=fixed;sketch=1;curveFitting=1;jiggle=2;fillColor=#e51400;fontColor=#000000;strokeColor=#B20000;fontStyle=1;fontSize=18;" parent="1" vertex="1">
          <mxGeometry x="-320" y="200" width="30" height="30" as="geometry" />
        </mxCell>
        <mxCell id="BJ02o5zEWki5oxR8saz3-16" value="&lt;font data-font-src=&quot;https://fonts.googleapis.com/css?family=Architects+Daughter&quot; face=&quot;Architects Daughter&quot;&gt;2.2&lt;/font&gt;" style="ellipse;whiteSpace=wrap;html=1;aspect=fixed;sketch=1;curveFitting=1;jiggle=2;fillColor=#e51400;fontColor=#000000;strokeColor=#B20000;fontStyle=1;fontSize=18;" parent="1" vertex="1">
          <mxGeometry x="-250" y="360" width="30" height="30" as="geometry" />
        </mxCell>
        <mxCell id="BJ02o5zEWki5oxR8saz3-17" value="&lt;font data-font-src=&quot;https://fonts.googleapis.com/css?family=Architects+Daughter&quot; face=&quot;Architects Daughter&quot;&gt;2.3&lt;/font&gt;" style="ellipse;whiteSpace=wrap;html=1;aspect=fixed;sketch=1;curveFitting=1;jiggle=2;fillColor=#e51400;fontColor=#000000;strokeColor=#B20000;fontStyle=1;fontSize=18;" parent="1" vertex="1">
          <mxGeometry x="-470" y="350" width="30" height="30" as="geometry" />
        </mxCell>
        <mxCell id="BJ02o5zEWki5oxR8saz3-18" value="&lt;font data-font-src=&quot;https://fonts.googleapis.com/css?family=Architects+Daughter&quot; face=&quot;Architects Daughter&quot;&gt;2.4&lt;/font&gt;" style="ellipse;whiteSpace=wrap;html=1;aspect=fixed;sketch=1;curveFitting=1;jiggle=2;fillColor=#e51400;fontColor=#000000;strokeColor=#B20000;fontStyle=1;fontSize=18;" parent="1" vertex="1">
          <mxGeometry x="-430" y="390" width="30" height="30" as="geometry" />
        </mxCell>
        <mxCell id="BJ02o5zEWki5oxR8saz3-19" value="&lt;font data-font-src=&quot;https://fonts.googleapis.com/css?family=Architects+Daughter&quot; face=&quot;Architects Daughter&quot;&gt;2.5&lt;/font&gt;" style="ellipse;whiteSpace=wrap;html=1;aspect=fixed;sketch=1;curveFitting=1;jiggle=2;fillColor=#e51400;fontColor=#000000;strokeColor=#B20000;fontStyle=1;fontSize=18;" parent="1" vertex="1">
          <mxGeometry x="-300" y="470" width="30" height="30" as="geometry" />
        </mxCell>
        <mxCell id="BJ02o5zEWki5oxR8saz3-20" value="&lt;font data-font-src=&quot;https://fonts.googleapis.com/css?family=Architects+Daughter&quot; face=&quot;Architects Daughter&quot;&gt;2.6&lt;/font&gt;" style="ellipse;whiteSpace=wrap;html=1;aspect=fixed;sketch=1;curveFitting=1;jiggle=2;fillColor=#e51400;fontColor=#000000;strokeColor=#B20000;fontStyle=1;fontSize=18;" parent="1" vertex="1">
          <mxGeometry x="-80" y="523.67" width="30" height="30" as="geometry" />
        </mxCell>
        <mxCell id="BJ02o5zEWki5oxR8saz3-21" value="&lt;font data-font-src=&quot;https://fonts.googleapis.com/css?family=Architects+Daughter&quot; face=&quot;Architects Daughter&quot;&gt;2.7&lt;/font&gt;" style="ellipse;whiteSpace=wrap;html=1;aspect=fixed;sketch=1;curveFitting=1;jiggle=2;fillColor=#e51400;fontColor=#000000;strokeColor=#B20000;fontStyle=1;fontSize=18;" parent="1" vertex="1">
          <mxGeometry x="-480" y="590" width="30" height="30" as="geometry" />
        </mxCell>
        <mxCell id="L_Y6EMrfKergG43lPM6N-4" value="&lt;b&gt;Cost Compute&lt;/b&gt;" style="text;html=1;strokeColor=none;fillColor=none;align=center;verticalAlign=middle;whiteSpace=wrap;rounded=0;fontSize=20;fontFamily=Architects Daughter;fontColor=#393C56;" parent="1" vertex="1">
          <mxGeometry x="-280" y="510" width="180" height="30" as="geometry" />
        </mxCell>
        <mxCell id="BJ02o5zEWki5oxR8saz3-28" value="" style="endArrow=block;html=1;rounded=1;strokeWidth=2;sketch=1;curveFitting=1;jiggle=2;labelBackgroundColor=none;strokeColor=#FF3333;fontColor=default;endFill=1;edgeStyle=orthogonalEdgeStyle;curved=1;entryX=1;entryY=0.75;entryDx=0;entryDy=0;" parent="1" source="BJ02o5zEWki5oxR8saz3-27" target="5Od2gk_amHRYto03MtOO-20" edge="1">
          <mxGeometry width="50" height="50" relative="1" as="geometry">
            <mxPoint x="-372" y="620" as="sourcePoint" />
            <mxPoint x="-500" y="644" as="targetPoint" />
          </mxGeometry>
        </mxCell>
        <mxCell id="BJ02o5zEWki5oxR8saz3-29" value="&lt;font data-font-src=&quot;https://fonts.googleapis.com/css?family=Architects+Daughter&quot; face=&quot;Architects Daughter&quot;&gt;2.8&lt;/font&gt;" style="ellipse;whiteSpace=wrap;html=1;aspect=fixed;sketch=1;curveFitting=1;jiggle=2;fillColor=#e51400;fontColor=#000000;strokeColor=#B20000;fontStyle=1;fontSize=18;" parent="1" vertex="1">
          <mxGeometry x="-490" y="470" width="30" height="30" as="geometry" />
        </mxCell>
        <mxCell id="BJ02o5zEWki5oxR8saz3-30" value="&lt;font data-font-src=&quot;https://fonts.googleapis.com/css?family=Architects+Daughter&quot; face=&quot;Architects Daughter&quot;&gt;2.9&lt;/font&gt;" style="ellipse;whiteSpace=wrap;html=1;aspect=fixed;sketch=1;curveFitting=1;jiggle=2;fillColor=#e51400;fontColor=#000000;strokeColor=#B20000;fontStyle=1;fontSize=18;" parent="1" vertex="1">
          <mxGeometry x="-843" y="570" width="30" height="30" as="geometry" />
        </mxCell>
        <mxCell id="BJ02o5zEWki5oxR8saz3-31" value="&lt;font data-font-src=&quot;https://fonts.googleapis.com/css?family=Architects+Daughter&quot; face=&quot;Architects Daughter&quot;&gt;1.2&lt;/font&gt;" style="ellipse;whiteSpace=wrap;html=1;aspect=fixed;sketch=1;curveFitting=1;jiggle=2;fillColor=#e51400;fontColor=#000000;strokeColor=#B20000;fontStyle=1;fontSize=18;" parent="1" vertex="1">
          <mxGeometry x="-860" y="273.67" width="30" height="30" as="geometry" />
        </mxCell>
      </root>
    </mxGraphModel>
  </diagram>
  <diagram name="Copy of map-tracing-design" id="9KwQ_RtNDf3NyQKvYgK7">
    <mxGraphModel dx="2156" dy="822" grid="1" gridSize="10" guides="1" tooltips="1" connect="1" arrows="1" fold="1" page="1" pageScale="1" pageWidth="850" pageHeight="1100" math="0" shadow="0">
      <root>
        <mxCell id="nOERkIqGI3Xmlzi0Xihc-0" />
        <mxCell id="nOERkIqGI3Xmlzi0Xihc-1" parent="nOERkIqGI3Xmlzi0Xihc-0" />
        <mxCell id="nOERkIqGI3Xmlzi0Xihc-2" value="" style="endArrow=none;dashed=1;html=1;dashPattern=1 3;strokeWidth=2;rounded=0;sketch=1;hachureGap=4;jiggle=2;curveFitting=1;strokeColor=#E07A5F;fontFamily=Architects Daughter;fontSource=https%3A%2F%2Ffonts.googleapis.com%2Fcss%3Ffamily%3DArchitects%2BDaughter;fontSize=16;fontColor=#393C56;fillColor=#F2CC8F;exitX=0;exitY=0.75;exitDx=0;exitDy=0;entryX=0.875;entryY=0.5;entryDx=0;entryDy=0;entryPerimeter=0;" parent="nOERkIqGI3Xmlzi0Xihc-1" source="nOERkIqGI3Xmlzi0Xihc-58" target="nOERkIqGI3Xmlzi0Xihc-12" edge="1">
          <mxGeometry width="50" height="50" relative="1" as="geometry">
            <mxPoint x="240" y="1042.1599999999999" as="sourcePoint" />
            <mxPoint x="280" y="1277.1599999999999" as="targetPoint" />
          </mxGeometry>
        </mxCell>
        <mxCell id="nOERkIqGI3Xmlzi0Xihc-3" value="" style="rounded=1;whiteSpace=wrap;html=1;sketch=1;curveFitting=1;jiggle=2;labelBackgroundColor=none;fillColor=#eeeeee;strokeColor=#36393d;" parent="nOERkIqGI3Xmlzi0Xihc-1" vertex="1">
          <mxGeometry x="-40" y="598.33" width="860" height="390" as="geometry" />
        </mxCell>
        <mxCell id="nOERkIqGI3Xmlzi0Xihc-4" value="" style="rounded=1;whiteSpace=wrap;html=1;sketch=1;curveFitting=1;jiggle=2;labelBackgroundColor=none;fillColor=#d5e8d4;strokeColor=#82b366;fontFamily=Architects Daughter;fontSource=https%3A%2F%2Ffonts.googleapis.com%2Fcss%3Ffamily%3DArchitects%2BDaughter;" parent="nOERkIqGI3Xmlzi0Xihc-1" vertex="1">
          <mxGeometry x="30" y="240.00000000000006" width="780" height="330" as="geometry" />
        </mxCell>
        <mxCell id="nOERkIqGI3Xmlzi0Xihc-5" value="RoutingA;gorithms(MLD)" style="text;html=1;strokeColor=none;fillColor=none;align=center;verticalAlign=middle;whiteSpace=wrap;rounded=0;fontSize=20;fontFamily=Architects Daughter;fontColor=#393C56;fontSource=https%3A%2F%2Ffonts.googleapis.com%2Fcss%3Ffamily%3DArchitects%2BDaughter;" parent="nOERkIqGI3Xmlzi0Xihc-1" vertex="1">
          <mxGeometry x="650" y="250.00000000000003" width="80" height="30" as="geometry" />
        </mxCell>
        <mxCell id="nOERkIqGI3Xmlzi0Xihc-6" value="Storage" style="text;html=1;strokeColor=none;fillColor=none;align=center;verticalAlign=middle;whiteSpace=wrap;rounded=0;fontSize=20;fontFamily=Architects Daughter;fontColor=#393C56;" parent="nOERkIqGI3Xmlzi0Xihc-1" vertex="1">
          <mxGeometry x="710" y="608.33" width="80" height="30" as="geometry" />
        </mxCell>
        <mxCell id="nOERkIqGI3Xmlzi0Xihc-7" value="&lt;div style=&quot;background-color: rgb(255, 255, 255); color: rgb(8, 8, 8); font-size: 17px;&quot;&gt;&lt;div style=&quot;font-size: 17px;&quot;&gt;routingMachine&lt;/div&gt;&lt;/div&gt;" style="rounded=1;whiteSpace=wrap;html=1;sketch=1;hachureGap=4;jiggle=2;curveFitting=1;strokeColor=#E07A5F;fontFamily=Architects Daughter;fontSource=https%3A%2F%2Ffonts.googleapis.com%2Fcss%3Ffamily%3DArchitects%2BDaughter;fontSize=17;fontColor=#393C56;fillColor=#F2CC8F;fontStyle=1" parent="nOERkIqGI3Xmlzi0Xihc-1" vertex="1">
          <mxGeometry x="-780" y="61.84" width="300" height="70" as="geometry" />
        </mxCell>
        <mxCell id="nOERkIqGI3Xmlzi0Xihc-8" value="" style="endArrow=block;html=1;rounded=1;strokeWidth=2;sketch=1;curveFitting=1;jiggle=2;labelBackgroundColor=none;strokeColor=#FF3333;fontColor=default;endFill=1;edgeStyle=orthogonalEdgeStyle;curved=1;exitX=0.5;exitY=1;exitDx=0;exitDy=0;" parent="nOERkIqGI3Xmlzi0Xihc-1" source="nOERkIqGI3Xmlzi0Xihc-7" target="nOERkIqGI3Xmlzi0Xihc-11" edge="1">
          <mxGeometry width="50" height="50" relative="1" as="geometry">
            <mxPoint x="-1040" y="520" as="sourcePoint" />
            <mxPoint x="-990" y="470" as="targetPoint" />
          </mxGeometry>
        </mxCell>
        <mxCell id="nOERkIqGI3Xmlzi0Xihc-9" value="" style="rounded=1;whiteSpace=wrap;html=1;sketch=1;curveFitting=1;jiggle=2;labelBackgroundColor=none;fillColor=#dae8fc;strokeColor=#6c8ebf;" parent="nOERkIqGI3Xmlzi0Xihc-1" vertex="1">
          <mxGeometry x="-840" y="240" width="780" height="330" as="geometry" />
        </mxCell>
        <mxCell id="nOERkIqGI3Xmlzi0Xihc-10" value="Engine" style="text;html=1;strokeColor=none;fillColor=none;align=center;verticalAlign=middle;whiteSpace=wrap;rounded=0;fontSize=20;fontFamily=Architects Daughter;fontColor=#393C56;" parent="nOERkIqGI3Xmlzi0Xihc-1" vertex="1">
          <mxGeometry x="-160" y="250" width="80" height="30" as="geometry" />
        </mxCell>
        <mxCell id="nOERkIqGI3Xmlzi0Xihc-11" value="&lt;pre style=&quot;background-color: rgb(255, 255, 255); color: rgb(8, 8, 8); font-size: 17px;&quot;&gt;&lt;font style=&quot;font-size: 17px;&quot; data-font-src=&quot;https://fonts.googleapis.com/css?family=Architects+Daughter&quot; face=&quot;Architects Daughter&quot;&gt;&lt;span style=&quot;font-size: 17px;&quot;&gt;OSRM&lt;/span&gt;&lt;/font&gt;&lt;/pre&gt;" style="rounded=1;whiteSpace=wrap;html=1;sketch=1;hachureGap=4;jiggle=2;curveFitting=1;strokeColor=#006EAF;fontFamily=Architects Daughter;fontSource=https%3A%2F%2Ffonts.googleapis.com%2Fcss%3Ffamily%3DArchitects%2BDaughter;fontSize=17;fontColor=#ffffff;fillColor=#1ba1e2;fontStyle=1" parent="nOERkIqGI3Xmlzi0Xihc-1" vertex="1">
          <mxGeometry x="-715" y="260" width="250" height="60" as="geometry" />
        </mxCell>
        <mxCell id="nOERkIqGI3Xmlzi0Xihc-12" value="" style="ellipse;shape=cloud;whiteSpace=wrap;html=1;sketch=1;hachureGap=4;jiggle=2;curveFitting=1;strokeColor=#BD7000;fontFamily=Architects Daughter;fontSource=https%3A%2F%2Ffonts.googleapis.com%2Fcss%3Ffamily%3DArchitects%2BDaughter;fontSize=20;fontColor=#000000;fillColor=#f0a30a;" parent="nOERkIqGI3Xmlzi0Xihc-1" vertex="1">
          <mxGeometry x="-20" y="799.66" width="250" height="193.67" as="geometry" />
        </mxCell>
        <mxCell id="nOERkIqGI3Xmlzi0Xihc-13" value="&lt;div style=&quot;color: rgb(8, 8, 8); font-size: 16px;&quot;&gt;TrafficWindow&lt;/div&gt;" style="text;html=1;align=center;verticalAlign=middle;whiteSpace=wrap;rounded=0;fontSize=16;fontFamily=Architects Daughter;fontStyle=1;fontSource=https%3A%2F%2Ffonts.googleapis.com%2Fcss%3Ffamily%3DArchitects%2BDaughter;labelBackgroundColor=none;" parent="nOERkIqGI3Xmlzi0Xihc-1" vertex="1">
          <mxGeometry x="45" y="859.66" width="120" height="30" as="geometry" />
        </mxCell>
        <mxCell id="nOERkIqGI3Xmlzi0Xihc-14" value="&lt;div style=&quot;color: rgb(8, 8, 8); font-size: 16px;&quot;&gt;QueryHeapWithTraffic&lt;/div&gt;" style="text;html=1;align=center;verticalAlign=middle;whiteSpace=wrap;rounded=0;fontSize=16;fontFamily=Architects Daughter;fontStyle=1;fontSource=https%3A%2F%2Ffonts.googleapis.com%2Fcss%3Ffamily%3DArchitects%2BDaughter;labelBackgroundColor=none;" parent="nOERkIqGI3Xmlzi0Xihc-1" vertex="1">
          <mxGeometry x="60" y="895.9899999999999" width="120" height="30" as="geometry" />
        </mxCell>
        <mxCell id="nOERkIqGI3Xmlzi0Xihc-15" value="&lt;div style=&quot;color: rgb(8, 8, 8); font-size: 16px;&quot;&gt;CellMetrics&lt;/div&gt;" style="text;html=1;align=center;verticalAlign=middle;whiteSpace=wrap;rounded=0;fontSize=16;fontFamily=Architects Daughter;fontStyle=1;fontSource=https%3A%2F%2Ffonts.googleapis.com%2Fcss%3Ffamily%3DArchitects%2BDaughter;labelBackgroundColor=none;" parent="nOERkIqGI3Xmlzi0Xihc-1" vertex="1">
          <mxGeometry x="60" y="929.66" width="120" height="30" as="geometry" />
        </mxCell>
        <mxCell id="nOERkIqGI3Xmlzi0Xihc-16" value="&lt;pre style=&quot;background-color: rgb(255, 255, 255); color: rgb(8, 8, 8); font-size: 17px;&quot;&gt;&lt;font face=&quot;Architects Daughter&quot;&gt;Engine&amp;lt;CH&amp;gt;&lt;/font&gt;&lt;/pre&gt;" style="rounded=1;whiteSpace=wrap;html=1;sketch=1;hachureGap=4;jiggle=2;curveFitting=1;strokeColor=#006EAF;fontFamily=Architects Daughter;fontSource=https%3A%2F%2Ffonts.googleapis.com%2Fcss%3Ffamily%3DArchitects%2BDaughter;fontSize=17;fontColor=#ffffff;fillColor=#1ba1e2;fontStyle=1" parent="nOERkIqGI3Xmlzi0Xihc-1" vertex="1">
          <mxGeometry x="-450" y="366.33" width="250" height="60" as="geometry" />
        </mxCell>
        <mxCell id="nOERkIqGI3Xmlzi0Xihc-17" value="&lt;pre style=&quot;background-color: rgb(255, 255, 255); color: rgb(8, 8, 8); font-size: 17px;&quot;&gt;&lt;font style=&quot;font-size: 17px;&quot; data-font-src=&quot;https://fonts.googleapis.com/css?family=Architects+Daughter&quot; face=&quot;Architects Daughter&quot;&gt;&lt;span style=&quot;font-size: 17px;&quot;&gt;Engine&amp;lt;MLD&amp;gt;&lt;/span&gt;&lt;/font&gt;&lt;/pre&gt;" style="rounded=1;whiteSpace=wrap;html=1;sketch=1;hachureGap=4;jiggle=2;curveFitting=1;strokeColor=#006EAF;fontFamily=Architects Daughter;fontSource=https%3A%2F%2Ffonts.googleapis.com%2Fcss%3Ffamily%3DArchitects%2BDaughter;fontSize=17;fontColor=#ffffff;fillColor=#1ba1e2;fontStyle=1" parent="nOERkIqGI3Xmlzi0Xihc-1" vertex="1">
          <mxGeometry x="-790" y="366.33" width="250" height="60" as="geometry" />
        </mxCell>
        <mxCell id="nOERkIqGI3Xmlzi0Xihc-18" value="" style="endArrow=block;html=1;rounded=1;strokeWidth=2;sketch=1;curveFitting=1;jiggle=2;labelBackgroundColor=none;strokeColor=#FF3333;fontColor=default;endFill=1;edgeStyle=orthogonalEdgeStyle;curved=1;exitX=0.5;exitY=1;exitDx=0;exitDy=0;entryX=0.5;entryY=0;entryDx=0;entryDy=0;" parent="nOERkIqGI3Xmlzi0Xihc-1" source="nOERkIqGI3Xmlzi0Xihc-11" target="nOERkIqGI3Xmlzi0Xihc-17" edge="1">
          <mxGeometry width="50" height="50" relative="1" as="geometry">
            <mxPoint x="-700" y="130" as="sourcePoint" />
            <mxPoint x="-490" y="270" as="targetPoint" />
          </mxGeometry>
        </mxCell>
        <mxCell id="nOERkIqGI3Xmlzi0Xihc-19" value="" style="endArrow=block;html=1;rounded=1;strokeWidth=2;sketch=1;curveFitting=1;jiggle=2;labelBackgroundColor=none;strokeColor=#FF3333;fontColor=default;endFill=1;edgeStyle=orthogonalEdgeStyle;curved=1;exitX=0.5;exitY=1;exitDx=0;exitDy=0;entryX=0.5;entryY=0;entryDx=0;entryDy=0;" parent="nOERkIqGI3Xmlzi0Xihc-1" source="nOERkIqGI3Xmlzi0Xihc-11" target="nOERkIqGI3Xmlzi0Xihc-16" edge="1">
          <mxGeometry width="50" height="50" relative="1" as="geometry">
            <mxPoint x="-490" y="330" as="sourcePoint" />
            <mxPoint x="-555" y="370" as="targetPoint" />
          </mxGeometry>
        </mxCell>
        <mxCell id="nOERkIqGI3Xmlzi0Xihc-20" value="&lt;div style=&quot;background-color: rgb(255, 255, 255); color: rgb(8, 8, 8); font-size: 17px;&quot;&gt;&lt;div style=&quot;font-size: 17px;&quot;&gt;DataFacadeProvider&lt;/div&gt;&lt;/div&gt;" style="rounded=1;whiteSpace=wrap;html=1;sketch=1;hachureGap=4;jiggle=2;curveFitting=1;strokeColor=#006EAF;fontFamily=Architects Daughter;fontSource=https%3A%2F%2Ffonts.googleapis.com%2Fcss%3Ffamily%3DArchitects%2BDaughter;fontSize=17;fontColor=#ffffff;fillColor=#1ba1e2;fontStyle=1" parent="nOERkIqGI3Xmlzi0Xihc-1" vertex="1">
          <mxGeometry x="-630" y="456.34" width="250" height="60" as="geometry" />
        </mxCell>
        <mxCell id="nOERkIqGI3Xmlzi0Xihc-21" value="" style="endArrow=block;html=1;rounded=1;strokeWidth=2;sketch=1;curveFitting=1;jiggle=2;labelBackgroundColor=none;strokeColor=#FF3333;fontColor=default;endFill=1;edgeStyle=orthogonalEdgeStyle;curved=1;exitX=1;exitY=0.5;exitDx=0;exitDy=0;entryX=0.5;entryY=0;entryDx=0;entryDy=0;" parent="nOERkIqGI3Xmlzi0Xihc-1" source="nOERkIqGI3Xmlzi0Xihc-17" target="nOERkIqGI3Xmlzi0Xihc-20" edge="1">
          <mxGeometry width="50" height="50" relative="1" as="geometry">
            <mxPoint x="-450" y="330" as="sourcePoint" />
            <mxPoint x="-655" y="376" as="targetPoint" />
          </mxGeometry>
        </mxCell>
        <mxCell id="nOERkIqGI3Xmlzi0Xihc-22" value="" style="endArrow=block;html=1;rounded=1;strokeWidth=2;sketch=1;curveFitting=1;jiggle=2;labelBackgroundColor=none;strokeColor=#FF3333;fontColor=default;endFill=1;edgeStyle=orthogonalEdgeStyle;curved=1;entryX=0.5;entryY=0;entryDx=0;entryDy=0;exitX=0;exitY=0.5;exitDx=0;exitDy=0;" parent="nOERkIqGI3Xmlzi0Xihc-1" source="nOERkIqGI3Xmlzi0Xihc-16" target="nOERkIqGI3Xmlzi0Xihc-20" edge="1">
          <mxGeometry width="50" height="50" relative="1" as="geometry">
            <mxPoint x="-530" y="406" as="sourcePoint" />
            <mxPoint x="-500" y="450" as="targetPoint" />
          </mxGeometry>
        </mxCell>
        <mxCell id="nOERkIqGI3Xmlzi0Xihc-23" value="&lt;div style=&quot;background-color: rgb(255, 255, 255); color: rgb(8, 8, 8); font-size: 17px;&quot;&gt;&lt;div style=&quot;font-size: 17px;&quot;&gt;FacadeFactory&lt;/div&gt;&lt;/div&gt;" style="rounded=1;whiteSpace=wrap;html=1;sketch=1;hachureGap=4;jiggle=2;curveFitting=1;strokeColor=#006EAF;fontFamily=Architects Daughter;fontSource=https%3A%2F%2Ffonts.googleapis.com%2Fcss%3Ffamily%3DArchitects%2BDaughter;fontSize=17;fontColor=#ffffff;fillColor=#1ba1e2;fontStyle=1" parent="nOERkIqGI3Xmlzi0Xihc-1" vertex="1">
          <mxGeometry x="-335" y="456.34000000000003" width="250" height="60" as="geometry" />
        </mxCell>
        <mxCell id="nOERkIqGI3Xmlzi0Xihc-24" value="" style="endArrow=block;html=1;strokeWidth=2;sketch=1;curveFitting=1;jiggle=2;labelBackgroundColor=none;strokeColor=#FF3333;fontColor=default;endFill=1;curved=1;entryX=0;entryY=0.5;entryDx=0;entryDy=0;exitX=1;exitY=0.5;exitDx=0;exitDy=0;" parent="nOERkIqGI3Xmlzi0Xihc-1" source="nOERkIqGI3Xmlzi0Xihc-20" target="nOERkIqGI3Xmlzi0Xihc-23" edge="1">
          <mxGeometry width="50" height="50" relative="1" as="geometry">
            <mxPoint x="-490" y="720" as="sourcePoint" />
            <mxPoint x="-490" y="760" as="targetPoint" />
          </mxGeometry>
        </mxCell>
        <mxCell id="nOERkIqGI3Xmlzi0Xihc-25" value="" style="group;rounded=1;sketch=1;curveFitting=1;jiggle=2;labelBackgroundColor=none;fontColor=#393C56;" parent="nOERkIqGI3Xmlzi0Xihc-1" vertex="1" connectable="0">
          <mxGeometry x="-265" y="789.9966666666667" width="67" height="66.33333333333331" as="geometry" />
        </mxCell>
        <mxCell id="nOERkIqGI3Xmlzi0Xihc-26" value="" style="shape=note;whiteSpace=wrap;html=1;backgroundOutline=1;darkOpacity=0.05;size=15;rounded=1;sketch=1;curveFitting=1;jiggle=2;labelBackgroundColor=none;fillColor=#F2CC8F;strokeColor=#E07A5F;fontColor=#393C56;" parent="nOERkIqGI3Xmlzi0Xihc-25" vertex="1">
          <mxGeometry width="56" height="58.333333333333336" as="geometry" />
        </mxCell>
        <mxCell id="nOERkIqGI3Xmlzi0Xihc-27" value="" style="shape=note;whiteSpace=wrap;html=1;backgroundOutline=1;darkOpacity=0.05;size=15;rounded=1;sketch=1;curveFitting=1;jiggle=2;labelBackgroundColor=none;fillColor=#F2CC8F;strokeColor=#E07A5F;fontColor=#393C56;" parent="nOERkIqGI3Xmlzi0Xihc-25" vertex="1">
          <mxGeometry x="5" y="4" width="56" height="58.333333333333336" as="geometry" />
        </mxCell>
        <mxCell id="nOERkIqGI3Xmlzi0Xihc-28" value="" style="shape=note;whiteSpace=wrap;html=1;backgroundOutline=1;darkOpacity=0.05;size=15;rounded=1;sketch=1;curveFitting=1;jiggle=2;labelBackgroundColor=none;fillColor=#F2CC8F;strokeColor=#E07A5F;fontColor=#393C56;" parent="nOERkIqGI3Xmlzi0Xihc-25" vertex="1">
          <mxGeometry x="11" y="8" width="56" height="58.333333333333336" as="geometry" />
        </mxCell>
        <mxCell id="nOERkIqGI3Xmlzi0Xihc-29" value="&lt;div style=&quot;background-color: rgb(255, 255, 255); color: rgb(8, 8, 8);&quot;&gt;&lt;font style=&quot;font-size: 15px;&quot; data-font-src=&quot;https://fonts.googleapis.com/css?family=Architects+Daughter&quot;&gt;.osrm.mldgr&lt;/font&gt;&lt;/div&gt;" style="text;html=1;strokeColor=none;fillColor=none;align=center;verticalAlign=middle;whiteSpace=wrap;rounded=0;fontSize=20;fontFamily=Comic Sans MS;fontColor=#393C56;fontStyle=0" parent="nOERkIqGI3Xmlzi0Xihc-1" vertex="1">
          <mxGeometry x="-258" y="856.33" width="60" height="30" as="geometry" />
        </mxCell>
        <mxCell id="nOERkIqGI3Xmlzi0Xihc-30" value="&lt;font color=&quot;#000000&quot;&gt;file_reader&lt;/font&gt;" style="rounded=0;whiteSpace=wrap;html=1;sketch=1;hachureGap=4;jiggle=2;curveFitting=1;strokeColor=#006EAF;fontFamily=Architects Daughter;fontSource=https%3A%2F%2Ffonts.googleapis.com%2Fcss%3Ffamily%3DArchitects%2BDaughter;fontSize=20;fontColor=#ffffff;fillColor=#1ba1e2;rotation=90;" parent="nOERkIqGI3Xmlzi0Xihc-1" vertex="1">
          <mxGeometry x="-241.5" y="731.33" width="300" height="60" as="geometry" />
        </mxCell>
        <mxCell id="nOERkIqGI3Xmlzi0Xihc-31" value="" style="group;rounded=1;sketch=1;curveFitting=1;jiggle=2;labelBackgroundColor=none;fontColor=#393C56;" parent="nOERkIqGI3Xmlzi0Xihc-1" vertex="1" connectable="0">
          <mxGeometry x="-570" y="779.9966666666667" width="67" height="66.33333333333331" as="geometry" />
        </mxCell>
        <mxCell id="nOERkIqGI3Xmlzi0Xihc-32" value="" style="shape=note;whiteSpace=wrap;html=1;backgroundOutline=1;darkOpacity=0.05;size=15;rounded=1;sketch=1;curveFitting=1;jiggle=2;labelBackgroundColor=none;fillColor=#F2CC8F;strokeColor=#E07A5F;fontColor=#393C56;" parent="nOERkIqGI3Xmlzi0Xihc-31" vertex="1">
          <mxGeometry width="56" height="58.333333333333336" as="geometry" />
        </mxCell>
        <mxCell id="nOERkIqGI3Xmlzi0Xihc-33" value="" style="shape=note;whiteSpace=wrap;html=1;backgroundOutline=1;darkOpacity=0.05;size=15;rounded=1;sketch=1;curveFitting=1;jiggle=2;labelBackgroundColor=none;fillColor=#F2CC8F;strokeColor=#E07A5F;fontColor=#393C56;" parent="nOERkIqGI3Xmlzi0Xihc-31" vertex="1">
          <mxGeometry x="5" y="4" width="56" height="58.333333333333336" as="geometry" />
        </mxCell>
        <mxCell id="nOERkIqGI3Xmlzi0Xihc-34" value="" style="shape=note;whiteSpace=wrap;html=1;backgroundOutline=1;darkOpacity=0.05;size=15;rounded=1;sketch=1;curveFitting=1;jiggle=2;labelBackgroundColor=none;fillColor=#F2CC8F;strokeColor=#E07A5F;fontColor=#393C56;" parent="nOERkIqGI3Xmlzi0Xihc-31" vertex="1">
          <mxGeometry x="11" y="8" width="56" height="58.333333333333336" as="geometry" />
        </mxCell>
        <mxCell id="nOERkIqGI3Xmlzi0Xihc-35" value="&lt;div style=&quot;background-color: rgb(255, 255, 255); color: rgb(8, 8, 8);&quot;&gt;&lt;font style=&quot;font-size: 15px;&quot; data-font-src=&quot;https://fonts.googleapis.com/css?family=Architects+Daughter&quot;&gt;.osrm.cell_metrics&lt;/font&gt;&lt;/div&gt;" style="text;html=1;strokeColor=none;fillColor=none;align=center;verticalAlign=middle;whiteSpace=wrap;rounded=0;fontSize=20;fontFamily=Comic Sans MS;fontColor=#393C56;fontStyle=0" parent="nOERkIqGI3Xmlzi0Xihc-1" vertex="1">
          <mxGeometry x="-563" y="854.9999999999999" width="60" height="30" as="geometry" />
        </mxCell>
        <mxCell id="nOERkIqGI3Xmlzi0Xihc-36" value="" style="group;rounded=1;sketch=1;curveFitting=1;jiggle=2;labelBackgroundColor=none;fontColor=#393C56;" parent="nOERkIqGI3Xmlzi0Xihc-1" vertex="1" connectable="0">
          <mxGeometry x="-415" y="659.9966666666667" width="67" height="66.33333333333331" as="geometry" />
        </mxCell>
        <mxCell id="nOERkIqGI3Xmlzi0Xihc-37" value="" style="shape=note;whiteSpace=wrap;html=1;backgroundOutline=1;darkOpacity=0.05;size=15;rounded=1;sketch=1;curveFitting=1;jiggle=2;labelBackgroundColor=none;fillColor=#F2CC8F;strokeColor=#E07A5F;fontColor=#393C56;" parent="nOERkIqGI3Xmlzi0Xihc-36" vertex="1">
          <mxGeometry width="56" height="58.333333333333336" as="geometry" />
        </mxCell>
        <mxCell id="nOERkIqGI3Xmlzi0Xihc-38" value="" style="shape=note;whiteSpace=wrap;html=1;backgroundOutline=1;darkOpacity=0.05;size=15;rounded=1;sketch=1;curveFitting=1;jiggle=2;labelBackgroundColor=none;fillColor=#F2CC8F;strokeColor=#E07A5F;fontColor=#393C56;" parent="nOERkIqGI3Xmlzi0Xihc-36" vertex="1">
          <mxGeometry x="5" y="4" width="56" height="58.333333333333336" as="geometry" />
        </mxCell>
        <mxCell id="nOERkIqGI3Xmlzi0Xihc-39" value="" style="shape=note;whiteSpace=wrap;html=1;backgroundOutline=1;darkOpacity=0.05;size=15;rounded=1;sketch=1;curveFitting=1;jiggle=2;labelBackgroundColor=none;fillColor=#F2CC8F;strokeColor=#E07A5F;fontColor=#393C56;" parent="nOERkIqGI3Xmlzi0Xihc-36" vertex="1">
          <mxGeometry x="11" y="8" width="56" height="58.333333333333336" as="geometry" />
        </mxCell>
        <mxCell id="nOERkIqGI3Xmlzi0Xihc-40" value="&lt;font style=&quot;font-size: 15px;&quot;&gt;.osrm._nbg_node&lt;/font&gt;" style="text;html=1;strokeColor=none;fillColor=none;align=center;verticalAlign=middle;whiteSpace=wrap;rounded=0;fontSize=20;fontFamily=Comic Sans MS;fontColor=#393C56;fontStyle=0" parent="nOERkIqGI3Xmlzi0Xihc-1" vertex="1">
          <mxGeometry x="-411.5" y="726.3299999999999" width="60" height="30" as="geometry" />
        </mxCell>
        <mxCell id="nOERkIqGI3Xmlzi0Xihc-41" value="" style="group;rounded=1;sketch=1;curveFitting=1;jiggle=2;labelBackgroundColor=none;fontColor=#393C56;" parent="nOERkIqGI3Xmlzi0Xihc-1" vertex="1" connectable="0">
          <mxGeometry x="-415" y="789.9966666666667" width="67" height="66.33333333333331" as="geometry" />
        </mxCell>
        <mxCell id="nOERkIqGI3Xmlzi0Xihc-42" value="" style="shape=note;whiteSpace=wrap;html=1;backgroundOutline=1;darkOpacity=0.05;size=15;rounded=1;sketch=1;curveFitting=1;jiggle=2;labelBackgroundColor=none;fillColor=#F2CC8F;strokeColor=#E07A5F;fontColor=#393C56;" parent="nOERkIqGI3Xmlzi0Xihc-41" vertex="1">
          <mxGeometry width="56" height="58.333333333333336" as="geometry" />
        </mxCell>
        <mxCell id="nOERkIqGI3Xmlzi0Xihc-43" value="" style="shape=note;whiteSpace=wrap;html=1;backgroundOutline=1;darkOpacity=0.05;size=15;rounded=1;sketch=1;curveFitting=1;jiggle=2;labelBackgroundColor=none;fillColor=#F2CC8F;strokeColor=#E07A5F;fontColor=#393C56;" parent="nOERkIqGI3Xmlzi0Xihc-41" vertex="1">
          <mxGeometry x="5" y="4" width="56" height="58.333333333333336" as="geometry" />
        </mxCell>
        <mxCell id="nOERkIqGI3Xmlzi0Xihc-44" value="" style="shape=note;whiteSpace=wrap;html=1;backgroundOutline=1;darkOpacity=0.05;size=15;rounded=1;sketch=1;curveFitting=1;jiggle=2;labelBackgroundColor=none;fillColor=#F2CC8F;strokeColor=#E07A5F;fontColor=#393C56;" parent="nOERkIqGI3Xmlzi0Xihc-41" vertex="1">
          <mxGeometry x="11" y="8" width="56" height="58.333333333333336" as="geometry" />
        </mxCell>
        <mxCell id="nOERkIqGI3Xmlzi0Xihc-45" value="&lt;div style=&quot;background-color: rgb(255, 255, 255); color: rgb(8, 8, 8);&quot;&gt;&lt;font style=&quot;font-size: 15px;&quot; data-font-src=&quot;https://fonts.googleapis.com/css?family=Architects+Daughter&quot;&gt;.osrm.geometry&lt;/font&gt;&lt;/div&gt;" style="text;html=1;strokeColor=none;fillColor=none;align=center;verticalAlign=middle;whiteSpace=wrap;rounded=0;fontSize=20;fontFamily=Comic Sans MS;fontColor=#393C56;fontStyle=0" parent="nOERkIqGI3Xmlzi0Xihc-1" vertex="1">
          <mxGeometry x="-261.5" y="726.33" width="60" height="30" as="geometry" />
        </mxCell>
        <mxCell id="nOERkIqGI3Xmlzi0Xihc-46" value="" style="group;rounded=1;sketch=1;curveFitting=1;jiggle=2;labelBackgroundColor=none;fontColor=#393C56;" parent="nOERkIqGI3Xmlzi0Xihc-1" vertex="1" connectable="0">
          <mxGeometry x="-268.5" y="659.9966666666667" width="67" height="66.33333333333331" as="geometry" />
        </mxCell>
        <mxCell id="nOERkIqGI3Xmlzi0Xihc-47" value="" style="shape=note;whiteSpace=wrap;html=1;backgroundOutline=1;darkOpacity=0.05;size=15;rounded=1;sketch=1;curveFitting=1;jiggle=2;labelBackgroundColor=none;fillColor=#F2CC8F;strokeColor=#E07A5F;fontColor=#393C56;" parent="nOERkIqGI3Xmlzi0Xihc-46" vertex="1">
          <mxGeometry width="56" height="58.333333333333336" as="geometry" />
        </mxCell>
        <mxCell id="nOERkIqGI3Xmlzi0Xihc-48" value="" style="shape=note;whiteSpace=wrap;html=1;backgroundOutline=1;darkOpacity=0.05;size=15;rounded=1;sketch=1;curveFitting=1;jiggle=2;labelBackgroundColor=none;fillColor=#F2CC8F;strokeColor=#E07A5F;fontColor=#393C56;" parent="nOERkIqGI3Xmlzi0Xihc-46" vertex="1">
          <mxGeometry x="5" y="4" width="56" height="58.333333333333336" as="geometry" />
        </mxCell>
        <mxCell id="nOERkIqGI3Xmlzi0Xihc-49" value="" style="shape=note;whiteSpace=wrap;html=1;backgroundOutline=1;darkOpacity=0.05;size=15;rounded=1;sketch=1;curveFitting=1;jiggle=2;labelBackgroundColor=none;fillColor=#F2CC8F;strokeColor=#E07A5F;fontColor=#393C56;" parent="nOERkIqGI3Xmlzi0Xihc-46" vertex="1">
          <mxGeometry x="11" y="8" width="56" height="58.333333333333336" as="geometry" />
        </mxCell>
        <mxCell id="nOERkIqGI3Xmlzi0Xihc-50" value="&lt;div style=&quot;background-color: rgb(255, 255, 255); color: rgb(8, 8, 8); font-size: 15px;&quot;&gt;&lt;font data-font-src=&quot;https://fonts.googleapis.com/css?family=Architects+Daughter&quot;&gt;.osrm.ebg_nodes&lt;/font&gt;&lt;/div&gt;" style="text;html=1;strokeColor=none;fillColor=none;align=center;verticalAlign=middle;whiteSpace=wrap;rounded=0;fontSize=20;fontFamily=Comic Sans MS;fontColor=#393C56;fontStyle=0" parent="nOERkIqGI3Xmlzi0Xihc-1" vertex="1">
          <mxGeometry x="-415" y="856.3399999999999" width="60" height="30" as="geometry" />
        </mxCell>
        <mxCell id="nOERkIqGI3Xmlzi0Xihc-51" value="" style="shape=flexArrow;endArrow=classic;html=1;rounded=0;sketch=1;hachureGap=4;jiggle=2;curveFitting=1;strokeColor=#A50040;fontFamily=Architects Daughter;fontSource=https%3A%2F%2Ffonts.googleapis.com%2Fcss%3Ffamily%3DArchitects%2BDaughter;fontSize=16;fontColor=#393C56;fillColor=#d80073;" parent="nOERkIqGI3Xmlzi0Xihc-1" edge="1">
          <mxGeometry width="50" height="50" relative="1" as="geometry">
            <mxPoint x="-175" y="739.1600000000001" as="sourcePoint" />
            <mxPoint x="-137" y="728.33" as="targetPoint" />
          </mxGeometry>
        </mxCell>
        <mxCell id="nOERkIqGI3Xmlzi0Xihc-52" value="&lt;div style=&quot;background-color: rgb(255, 255, 255); color: rgb(8, 8, 8); font-size: 17px;&quot;&gt;&lt;div style=&quot;font-size: 17px;&quot;&gt;ProcessMemoryAllocator&lt;/div&gt;&lt;/div&gt;" style="rounded=1;whiteSpace=wrap;html=1;sketch=1;hachureGap=4;jiggle=2;curveFitting=1;strokeColor=#006EAF;fontFamily=Architects Daughter;fontSource=https%3A%2F%2Ffonts.googleapis.com%2Fcss%3Ffamily%3DArchitects%2BDaughter;fontSize=17;fontColor=#ffffff;fillColor=#1ba1e2;fontStyle=1" parent="nOERkIqGI3Xmlzi0Xihc-1" vertex="1">
          <mxGeometry x="80" y="498.33" width="250" height="60" as="geometry" />
        </mxCell>
        <mxCell id="nOERkIqGI3Xmlzi0Xihc-53" value="&lt;div style=&quot;background-color: rgb(255, 255, 255); color: rgb(8, 8, 8); font-size: 17px;&quot;&gt;&lt;div style=&quot;font-size: 17px;&quot;&gt;PopulateStaticData&lt;/div&gt;&lt;/div&gt;" style="rounded=1;whiteSpace=wrap;html=1;sketch=1;hachureGap=4;jiggle=2;curveFitting=1;strokeColor=#36393d;fontFamily=Architects Daughter;fontSource=https%3A%2F%2Ffonts.googleapis.com%2Fcss%3Ffamily%3DArchitects%2BDaughter;fontSize=17;fillColor=#eeeeee;fontStyle=1;" parent="nOERkIqGI3Xmlzi0Xihc-1" vertex="1">
          <mxGeometry x="10" y="628.33" width="250" height="60" as="geometry" />
        </mxCell>
        <mxCell id="nOERkIqGI3Xmlzi0Xihc-54" value="&lt;div style=&quot;background-color: rgb(255, 255, 255); color: rgb(8, 8, 8); font-size: 17px;&quot;&gt;&lt;div style=&quot;font-size: 17px;&quot;&gt;PopulateUpdatableData&lt;/div&gt;&lt;/div&gt;" style="rounded=1;whiteSpace=wrap;html=1;sketch=1;hachureGap=4;jiggle=2;curveFitting=1;strokeColor=#36393d;fontFamily=Architects Daughter;fontSource=https%3A%2F%2Ffonts.googleapis.com%2Fcss%3Ffamily%3DArchitects%2BDaughter;fontSize=17;fillColor=#eeeeee;fontStyle=1;" parent="nOERkIqGI3Xmlzi0Xihc-1" vertex="1">
          <mxGeometry x="10" y="718.33" width="250" height="60" as="geometry" />
        </mxCell>
        <mxCell id="nOERkIqGI3Xmlzi0Xihc-55" value="&lt;div style=&quot;font-size: 17px;&quot;&gt;EdgeBasedNodeDataView&lt;/div&gt;" style="shape=dataStorage;whiteSpace=wrap;html=1;fixedSize=1;sketch=1;hachureGap=4;jiggle=2;curveFitting=1;strokeColor=#006EAF;fontFamily=Architects Daughter;fontSource=https%3A%2F%2Ffonts.googleapis.com%2Fcss%3Ffamily%3DArchitects%2BDaughter;fontSize=17;fillColor=#1ba1e2;fontColor=#333333;fontStyle=1;labelBackgroundColor=default;" parent="nOERkIqGI3Xmlzi0Xihc-1" vertex="1">
          <mxGeometry x="380" y="648.33" width="170" height="50" as="geometry" />
        </mxCell>
        <mxCell id="nOERkIqGI3Xmlzi0Xihc-56" value="SegmentDataContainer" style="shape=dataStorage;whiteSpace=wrap;html=1;fixedSize=1;sketch=1;hachureGap=4;jiggle=2;curveFitting=1;strokeColor=#006EAF;fontFamily=Architects Daughter;fontSource=https%3A%2F%2Ffonts.googleapis.com%2Fcss%3Ffamily%3DArchitects%2BDaughter;fontSize=17;fillColor=#1ba1e2;fontColor=#333333;fontStyle=1;labelBackgroundColor=default;" parent="nOERkIqGI3Xmlzi0Xihc-1" vertex="1">
          <mxGeometry x="380" y="710.1600000000001" width="170" height="56.34" as="geometry" />
        </mxCell>
        <mxCell id="nOERkIqGI3Xmlzi0Xihc-57" value="NbgDataView" style="shape=dataStorage;whiteSpace=wrap;html=1;fixedSize=1;sketch=1;hachureGap=4;jiggle=2;curveFitting=1;strokeColor=#006EAF;fontFamily=Architects Daughter;fontSource=https%3A%2F%2Ffonts.googleapis.com%2Fcss%3Ffamily%3DArchitects%2BDaughter;fontSize=17;fillColor=#1ba1e2;fontColor=#333333;fontStyle=1;labelBackgroundColor=default;" parent="nOERkIqGI3Xmlzi0Xihc-1" vertex="1">
          <mxGeometry x="380" y="778.33" width="170" height="50" as="geometry" />
        </mxCell>
        <mxCell id="nOERkIqGI3Xmlzi0Xihc-58" value="CellMetricsView" style="shape=dataStorage;whiteSpace=wrap;html=1;fixedSize=1;sketch=1;hachureGap=4;jiggle=2;curveFitting=1;strokeColor=#E07A5F;fontFamily=Architects Daughter;fontSource=https%3A%2F%2Ffonts.googleapis.com%2Fcss%3Ffamily%3DArchitects%2BDaughter;fontSize=17;fontColor=#393C56;fillColor=#F2CC8F;fontStyle=1;labelBackgroundColor=default;" parent="nOERkIqGI3Xmlzi0Xihc-1" vertex="1">
          <mxGeometry x="380" y="848.33" width="170" height="51.33" as="geometry" />
        </mxCell>
        <mxCell id="nOERkIqGI3Xmlzi0Xihc-59" value="MultiLevelGraph" style="shape=dataStorage;whiteSpace=wrap;html=1;fixedSize=1;sketch=1;hachureGap=4;jiggle=2;curveFitting=1;strokeColor=#2D7600;fontFamily=Architects Daughter;fontSource=https%3A%2F%2Ffonts.googleapis.com%2Fcss%3Ffamily%3DArchitects%2BDaughter;fontSize=17;fontColor=#1A1A1A;fillColor=#60a917;fontStyle=1;labelBackgroundColor=default;" parent="nOERkIqGI3Xmlzi0Xihc-1" vertex="1">
          <mxGeometry x="380" y="917" width="170" height="51.33" as="geometry" />
        </mxCell>
        <mxCell id="nOERkIqGI3Xmlzi0Xihc-60" value="" style="endArrow=block;html=1;rounded=1;strokeWidth=2;sketch=1;curveFitting=1;jiggle=2;labelBackgroundColor=none;strokeColor=#0000FF;fontColor=default;endFill=1;dashed=1;entryX=0;entryY=0.5;entryDx=0;entryDy=0;" parent="nOERkIqGI3Xmlzi0Xihc-1" target="nOERkIqGI3Xmlzi0Xihc-53" edge="1">
          <mxGeometry width="50" height="50" relative="1" as="geometry">
            <mxPoint x="-60" y="680" as="sourcePoint" />
            <mxPoint x="-765" y="793.49" as="targetPoint" />
          </mxGeometry>
        </mxCell>
        <mxCell id="nOERkIqGI3Xmlzi0Xihc-61" value="" style="endArrow=block;html=1;rounded=1;strokeWidth=2;sketch=1;curveFitting=1;jiggle=2;labelBackgroundColor=none;strokeColor=#0000FF;fontColor=default;endFill=1;dashed=1;entryX=0;entryY=0.5;entryDx=0;entryDy=0;exitX=1;exitY=0.5;exitDx=0;exitDy=0;" parent="nOERkIqGI3Xmlzi0Xihc-1" source="nOERkIqGI3Xmlzi0Xihc-53" target="nOERkIqGI3Xmlzi0Xihc-55" edge="1">
          <mxGeometry width="50" height="50" relative="1" as="geometry">
            <mxPoint x="-70" y="698.33" as="sourcePoint" />
            <mxPoint x="20" y="668.33" as="targetPoint" />
          </mxGeometry>
        </mxCell>
        <mxCell id="nOERkIqGI3Xmlzi0Xihc-62" value="" style="endArrow=block;html=1;rounded=1;strokeWidth=2;sketch=1;curveFitting=1;jiggle=2;labelBackgroundColor=none;strokeColor=#0000FF;fontColor=default;endFill=1;dashed=1;entryX=0;entryY=0.5;entryDx=0;entryDy=0;" parent="nOERkIqGI3Xmlzi0Xihc-1" target="nOERkIqGI3Xmlzi0Xihc-56" edge="1">
          <mxGeometry width="50" height="50" relative="1" as="geometry">
            <mxPoint x="260" y="658.33" as="sourcePoint" />
            <mxPoint x="500" y="693.33" as="targetPoint" />
          </mxGeometry>
        </mxCell>
        <mxCell id="nOERkIqGI3Xmlzi0Xihc-63" value="" style="endArrow=block;html=1;rounded=1;strokeWidth=2;sketch=1;curveFitting=1;jiggle=2;labelBackgroundColor=none;strokeColor=#0000FF;fontColor=default;endFill=1;dashed=1;entryX=0;entryY=0.5;entryDx=0;entryDy=0;" parent="nOERkIqGI3Xmlzi0Xihc-1" target="nOERkIqGI3Xmlzi0Xihc-57" edge="1">
          <mxGeometry width="50" height="50" relative="1" as="geometry">
            <mxPoint x="260" y="658.33" as="sourcePoint" />
            <mxPoint x="500" y="758.33" as="targetPoint" />
          </mxGeometry>
        </mxCell>
        <mxCell id="nOERkIqGI3Xmlzi0Xihc-64" value="" style="endArrow=block;html=1;rounded=1;strokeWidth=2;sketch=1;curveFitting=1;jiggle=2;labelBackgroundColor=none;strokeColor=#0000FF;fontColor=default;endFill=1;dashed=1;entryX=0;entryY=0.5;entryDx=0;entryDy=0;exitX=1;exitY=0.5;exitDx=0;exitDy=0;" parent="nOERkIqGI3Xmlzi0Xihc-1" source="nOERkIqGI3Xmlzi0Xihc-54" target="nOERkIqGI3Xmlzi0Xihc-58" edge="1">
          <mxGeometry width="50" height="50" relative="1" as="geometry">
            <mxPoint x="270" y="668.33" as="sourcePoint" />
            <mxPoint x="500" y="823.33" as="targetPoint" />
          </mxGeometry>
        </mxCell>
        <mxCell id="nOERkIqGI3Xmlzi0Xihc-65" value="" style="endArrow=block;html=1;rounded=1;strokeWidth=2;sketch=1;curveFitting=1;jiggle=2;labelBackgroundColor=none;strokeColor=#0000FF;fontColor=default;endFill=1;dashed=1;entryX=0;entryY=0.5;entryDx=0;entryDy=0;" parent="nOERkIqGI3Xmlzi0Xihc-1" target="nOERkIqGI3Xmlzi0Xihc-59" edge="1">
          <mxGeometry width="50" height="50" relative="1" as="geometry">
            <mxPoint x="260" y="748.33" as="sourcePoint" />
            <mxPoint x="500" y="894.33" as="targetPoint" />
          </mxGeometry>
        </mxCell>
        <mxCell id="nOERkIqGI3Xmlzi0Xihc-66" value="" style="group" parent="nOERkIqGI3Xmlzi0Xihc-1" vertex="1" connectable="0">
          <mxGeometry x="560" y="628.33" width="250" height="193.67000000000002" as="geometry" />
        </mxCell>
        <mxCell id="nOERkIqGI3Xmlzi0Xihc-67" value="" style="ellipse;shape=cloud;whiteSpace=wrap;html=1;sketch=1;hachureGap=4;jiggle=2;curveFitting=1;strokeColor=#006EAF;fontFamily=Architects Daughter;fontSource=https%3A%2F%2Ffonts.googleapis.com%2Fcss%3Ffamily%3DArchitects%2BDaughter;fontSize=20;fontColor=#ffffff;fillColor=#1ba1e2;" parent="nOERkIqGI3Xmlzi0Xihc-66" vertex="1">
          <mxGeometry width="250" height="193.67" as="geometry" />
        </mxCell>
        <mxCell id="nOERkIqGI3Xmlzi0Xihc-68" value="fwd_traffic_weights" style="text;html=1;strokeColor=none;fillColor=none;align=center;verticalAlign=middle;whiteSpace=wrap;rounded=0;fontSize=16;fontFamily=Architects Daughter;fontColor=#393C56;fontStyle=0" parent="nOERkIqGI3Xmlzi0Xihc-66" vertex="1">
          <mxGeometry x="81" y="41.83000000000004" width="120" height="30" as="geometry" />
        </mxCell>
        <mxCell id="nOERkIqGI3Xmlzi0Xihc-69" value="rev_traffic_weights" style="text;html=1;strokeColor=none;fillColor=none;align=center;verticalAlign=middle;whiteSpace=wrap;rounded=0;fontSize=16;fontFamily=Architects Daughter;fontColor=#393C56;fontStyle=0" parent="nOERkIqGI3Xmlzi0Xihc-66" vertex="1">
          <mxGeometry x="81" y="71.83000000000004" width="120" height="30" as="geometry" />
        </mxCell>
        <mxCell id="nOERkIqGI3Xmlzi0Xihc-70" value="fwd_traffic_durations" style="text;html=1;strokeColor=none;fillColor=none;align=center;verticalAlign=middle;whiteSpace=wrap;rounded=0;fontSize=16;fontFamily=Architects Daughter;fontColor=#393C56;fontStyle=0" parent="nOERkIqGI3Xmlzi0Xihc-66" vertex="1">
          <mxGeometry x="81" y="101.83000000000004" width="120" height="30" as="geometry" />
        </mxCell>
        <mxCell id="nOERkIqGI3Xmlzi0Xihc-71" value="rev_traffic_durations" style="text;html=1;strokeColor=none;fillColor=none;align=center;verticalAlign=middle;whiteSpace=wrap;rounded=0;fontSize=16;fontFamily=Architects Daughter;fontColor=#393C56;fontStyle=0" parent="nOERkIqGI3Xmlzi0Xihc-66" vertex="1">
          <mxGeometry x="81" y="131.83000000000004" width="120" height="30" as="geometry" />
        </mxCell>
        <mxCell id="nOERkIqGI3Xmlzi0Xihc-72" value="" style="endArrow=none;dashed=1;html=1;dashPattern=1 3;strokeWidth=2;rounded=0;sketch=1;hachureGap=4;jiggle=2;curveFitting=1;strokeColor=#E07A5F;fontFamily=Architects Daughter;fontSource=https%3A%2F%2Ffonts.googleapis.com%2Fcss%3Ffamily%3DArchitects%2BDaughter;fontSize=16;fontColor=#393C56;fillColor=#F2CC8F;entryX=0.16;entryY=0.55;entryDx=0;entryDy=0;entryPerimeter=0;exitX=1;exitY=0.75;exitDx=0;exitDy=0;" parent="nOERkIqGI3Xmlzi0Xihc-1" source="nOERkIqGI3Xmlzi0Xihc-56" target="nOERkIqGI3Xmlzi0Xihc-67" edge="1">
          <mxGeometry width="50" height="50" relative="1" as="geometry">
            <mxPoint x="240" y="678.33" as="sourcePoint" />
            <mxPoint x="290" y="628.33" as="targetPoint" />
          </mxGeometry>
        </mxCell>
        <mxCell id="nOERkIqGI3Xmlzi0Xihc-73" value="" style="endArrow=none;dashed=1;html=1;dashPattern=1 3;strokeWidth=2;rounded=0;sketch=1;hachureGap=4;jiggle=2;curveFitting=1;strokeColor=#E07A5F;fontFamily=Architects Daughter;fontSource=https%3A%2F%2Ffonts.googleapis.com%2Fcss%3Ffamily%3DArchitects%2BDaughter;fontSize=16;fontColor=#393C56;fillColor=#F2CC8F;entryX=0.132;entryY=0.548;entryDx=0;entryDy=0;entryPerimeter=0;exitX=1;exitY=0.5;exitDx=0;exitDy=0;" parent="nOERkIqGI3Xmlzi0Xihc-1" source="nOERkIqGI3Xmlzi0Xihc-59" target="nOERkIqGI3Xmlzi0Xihc-74" edge="1">
          <mxGeometry width="50" height="50" relative="1" as="geometry">
            <mxPoint x="310" y="918.33" as="sourcePoint" />
            <mxPoint x="360" y="868.33" as="targetPoint" />
          </mxGeometry>
        </mxCell>
        <mxCell id="nOERkIqGI3Xmlzi0Xihc-74" value="" style="ellipse;shape=cloud;whiteSpace=wrap;html=1;sketch=1;hachureGap=4;jiggle=2;curveFitting=1;strokeColor=#2D7600;fontFamily=Architects Daughter;fontSource=https%3A%2F%2Ffonts.googleapis.com%2Fcss%3Ffamily%3DArchitects%2BDaughter;fontSize=20;fontColor=#ffffff;fillColor=#60a917;" parent="nOERkIqGI3Xmlzi0Xihc-1" vertex="1">
          <mxGeometry x="560" y="799.66" width="250" height="193.67" as="geometry" />
        </mxCell>
        <mxCell id="nOERkIqGI3Xmlzi0Xihc-75" value="&lt;div style=&quot;color: rgb(8, 8, 8); font-size: 16px;&quot;&gt;EdgeData.traffic_weight&lt;/div&gt;" style="text;html=1;align=center;verticalAlign=middle;whiteSpace=wrap;rounded=0;fontSize=16;fontFamily=Architects Daughter;fontStyle=1;fontSource=https%3A%2F%2Ffonts.googleapis.com%2Fcss%3Ffamily%3DArchitects%2BDaughter;labelBackgroundColor=none;" parent="nOERkIqGI3Xmlzi0Xihc-1" vertex="1">
          <mxGeometry x="640" y="873.33" width="120" height="30" as="geometry" />
        </mxCell>
        <mxCell id="nOERkIqGI3Xmlzi0Xihc-76" value="&lt;div style=&quot;border-color: var(--border-color); color: rgb(8, 8, 8); font-size: 16px;&quot;&gt;EdgeData.traffic_duration&lt;/div&gt;" style="text;html=1;align=center;verticalAlign=middle;whiteSpace=wrap;rounded=0;fontSize=16;fontFamily=Architects Daughter;fontStyle=1;fontSource=https%3A%2F%2Ffonts.googleapis.com%2Fcss%3Ffamily%3DArchitects%2BDaughter;labelBackgroundColor=none;" parent="nOERkIqGI3Xmlzi0Xihc-1" vertex="1">
          <mxGeometry x="640" y="903.33" width="120" height="30" as="geometry" />
        </mxCell>
        <mxCell id="nOERkIqGI3Xmlzi0Xihc-77" value="" style="endArrow=block;html=1;strokeWidth=2;sketch=1;curveFitting=1;jiggle=2;labelBackgroundColor=none;strokeColor=#FF3333;fontColor=default;endFill=1;curved=1;entryX=0.5;entryY=0;entryDx=0;entryDy=0;exitX=0.5;exitY=1;exitDx=0;exitDy=0;" parent="nOERkIqGI3Xmlzi0Xihc-1" source="nOERkIqGI3Xmlzi0Xihc-53" target="nOERkIqGI3Xmlzi0Xihc-54" edge="1">
          <mxGeometry width="50" height="50" relative="1" as="geometry">
            <mxPoint x="-560" y="1048.33" as="sourcePoint" />
            <mxPoint x="-560" y="1078.33" as="targetPoint" />
          </mxGeometry>
        </mxCell>
        <mxCell id="nOERkIqGI3Xmlzi0Xihc-78" value="" style="endArrow=block;html=1;strokeWidth=2;sketch=1;curveFitting=1;jiggle=2;labelBackgroundColor=none;strokeColor=#FF3333;fontColor=default;endFill=1;curved=1;entryX=0.5;entryY=0;entryDx=0;entryDy=0;exitX=0.528;exitY=0.986;exitDx=0;exitDy=0;exitPerimeter=0;" parent="nOERkIqGI3Xmlzi0Xihc-1" source="nOERkIqGI3Xmlzi0Xihc-52" target="nOERkIqGI3Xmlzi0Xihc-53" edge="1">
          <mxGeometry width="50" height="50" relative="1" as="geometry">
            <mxPoint x="-370" y="496" as="sourcePoint" />
            <mxPoint x="-325" y="496" as="targetPoint" />
            <Array as="points">
              <mxPoint x="220" y="610" />
            </Array>
          </mxGeometry>
        </mxCell>
        <mxCell id="nOERkIqGI3Xmlzi0Xihc-79" value="" style="endArrow=block;html=1;strokeWidth=2;sketch=1;curveFitting=1;jiggle=2;labelBackgroundColor=none;strokeColor=#FF3333;fontColor=default;endFill=1;curved=1;entryX=0;entryY=0.5;entryDx=0;entryDy=0;exitX=1;exitY=0.5;exitDx=0;exitDy=0;" parent="nOERkIqGI3Xmlzi0Xihc-1" source="nOERkIqGI3Xmlzi0Xihc-23" target="nOERkIqGI3Xmlzi0Xihc-52" edge="1">
          <mxGeometry width="50" height="50" relative="1" as="geometry">
            <mxPoint x="-370" y="496" as="sourcePoint" />
            <mxPoint x="-325" y="496" as="targetPoint" />
            <Array as="points">
              <mxPoint x="-10" y="520" />
            </Array>
          </mxGeometry>
        </mxCell>
        <mxCell id="nOERkIqGI3Xmlzi0Xihc-80" value="" style="shape=flexArrow;endArrow=classic;html=1;rounded=0;sketch=1;hachureGap=4;jiggle=2;curveFitting=1;strokeColor=#A50040;fontFamily=Architects Daughter;fontSource=https%3A%2F%2Ffonts.googleapis.com%2Fcss%3Ffamily%3DArchitects%2BDaughter;fontSize=16;fontColor=#393C56;fillColor=#d80073;" parent="nOERkIqGI3Xmlzi0Xihc-1" edge="1">
          <mxGeometry width="50" height="50" relative="1" as="geometry">
            <mxPoint x="360" y="533.5" as="sourcePoint" />
            <mxPoint x="398" y="522.6700000000001" as="targetPoint" />
          </mxGeometry>
        </mxCell>
        <mxCell id="nOERkIqGI3Xmlzi0Xihc-81" value="" style="group;fontFamily=Architects Daughter;fontSource=https%3A%2F%2Ffonts.googleapis.com%2Fcss%3Ffamily%3DArchitects%2BDaughter;" parent="nOERkIqGI3Xmlzi0Xihc-1" vertex="1" connectable="0">
          <mxGeometry x="420" y="440.00000000000006" width="320" height="103.66999999999996" as="geometry" />
        </mxCell>
        <mxCell id="nOERkIqGI3Xmlzi0Xihc-82" value="facades" style="shape=process;whiteSpace=wrap;html=1;backgroundOutline=1;sketch=1;hachureGap=4;jiggle=2;curveFitting=1;strokeColor=#E07A5F;fontFamily=Architects Daughter;fontSource=https%3A%2F%2Ffonts.googleapis.com%2Fcss%3Ffamily%3DArchitects%2BDaughter;fontSize=20;fontColor=#393C56;fillColor=#F2CC8F;" parent="nOERkIqGI3Xmlzi0Xihc-81" vertex="1">
          <mxGeometry width="320" height="103.67" as="geometry" />
        </mxCell>
        <mxCell id="nOERkIqGI3Xmlzi0Xihc-83" value="1" style="rounded=1;whiteSpace=wrap;html=1;sketch=1;hachureGap=4;jiggle=2;curveFitting=1;strokeColor=#E07A5F;fontFamily=Architects Daughter;fontSource=https%3A%2F%2Ffonts.googleapis.com%2Fcss%3Ffamily%3DArchitects%2BDaughter;fontSize=20;fontColor=#393C56;fillColor=#F2CC8F;" parent="nOERkIqGI3Xmlzi0Xihc-81" vertex="1">
          <mxGeometry x="40" y="66.32999999999993" width="50" height="33.67" as="geometry" />
        </mxCell>
        <mxCell id="nOERkIqGI3Xmlzi0Xihc-84" value="2" style="rounded=1;whiteSpace=wrap;html=1;sketch=1;hachureGap=4;jiggle=2;curveFitting=1;strokeColor=#E07A5F;fontFamily=Architects Daughter;fontSource=https%3A%2F%2Ffonts.googleapis.com%2Fcss%3Ffamily%3DArchitects%2BDaughter;fontSize=20;fontColor=#393C56;fillColor=#F2CC8F;" parent="nOERkIqGI3Xmlzi0Xihc-81" vertex="1">
          <mxGeometry x="100" y="66.32999999999993" width="50" height="33.67" as="geometry" />
        </mxCell>
        <mxCell id="nOERkIqGI3Xmlzi0Xihc-85" value="3" style="rounded=1;whiteSpace=wrap;html=1;sketch=1;hachureGap=4;jiggle=2;curveFitting=1;strokeColor=#E07A5F;fontFamily=Architects Daughter;fontSource=https%3A%2F%2Ffonts.googleapis.com%2Fcss%3Ffamily%3DArchitects%2BDaughter;fontSize=20;fontColor=#393C56;fillColor=#F2CC8F;" parent="nOERkIqGI3Xmlzi0Xihc-81" vertex="1">
          <mxGeometry x="160" y="66.32999999999993" width="50" height="33.67" as="geometry" />
        </mxCell>
        <mxCell id="nOERkIqGI3Xmlzi0Xihc-86" value="4" style="rounded=1;whiteSpace=wrap;html=1;sketch=1;hachureGap=4;jiggle=2;curveFitting=1;strokeColor=#E07A5F;fontFamily=Architects Daughter;fontSource=https%3A%2F%2Ffonts.googleapis.com%2Fcss%3Ffamily%3DArchitects%2BDaughter;fontSize=20;fontColor=#393C56;fillColor=#F2CC8F;" parent="nOERkIqGI3Xmlzi0Xihc-81" vertex="1">
          <mxGeometry x="230" y="66.32999999999993" width="50" height="33.67" as="geometry" />
        </mxCell>
        <mxCell id="nOERkIqGI3Xmlzi0Xihc-87" value="&lt;font style=&quot;background-color: rgb(255, 255, 255);&quot; color=&quot;#1a1a1a&quot;&gt;ServiceMap&lt;/font&gt;" style="rounded=1;whiteSpace=wrap;html=1;sketch=1;hachureGap=4;jiggle=2;curveFitting=1;strokeColor=#006EAF;fontFamily=Architects Daughter;fontSource=https%3A%2F%2Ffonts.googleapis.com%2Fcss%3Ffamily%3DArchitects%2BDaughter;fontSize=17;fontColor=#ffffff;fillColor=#1ba1e2;fontStyle=1" parent="nOERkIqGI3Xmlzi0Xihc-1" vertex="1">
          <mxGeometry x="-420" y="260" width="250" height="60" as="geometry" />
        </mxCell>
        <mxCell id="nOERkIqGI3Xmlzi0Xihc-88" value="" style="endArrow=block;html=1;strokeWidth=2;sketch=1;curveFitting=1;jiggle=2;labelBackgroundColor=none;strokeColor=#FF3333;fontColor=default;endFill=1;curved=1;entryX=1;entryY=1;entryDx=0;entryDy=0;exitX=0;exitY=0.25;exitDx=0;exitDy=0;" parent="nOERkIqGI3Xmlzi0Xihc-1" source="nOERkIqGI3Xmlzi0Xihc-52" target="nOERkIqGI3Xmlzi0Xihc-87" edge="1">
          <mxGeometry width="50" height="50" relative="1" as="geometry">
            <mxPoint x="222" y="567" as="sourcePoint" />
            <mxPoint x="215" y="670" as="targetPoint" />
            <Array as="points">
              <mxPoint x="-30" y="460" />
            </Array>
          </mxGeometry>
        </mxCell>
        <mxCell id="nOERkIqGI3Xmlzi0Xihc-89" value="&lt;div style=&quot;background-color: rgb(255, 255, 255); color: rgb(8, 8, 8); font-size: 17px;&quot;&gt;&lt;div style=&quot;font-size: 17px;&quot;&gt;routeQuery&lt;/div&gt;&lt;/div&gt;" style="rounded=1;whiteSpace=wrap;html=1;sketch=1;hachureGap=4;jiggle=2;curveFitting=1;strokeColor=#E07A5F;fontFamily=Architects Daughter;fontSource=https%3A%2F%2Ffonts.googleapis.com%2Fcss%3Ffamily%3DArchitects%2BDaughter;fontSize=17;fontColor=#393C56;fillColor=#F2CC8F;fontStyle=1" parent="nOERkIqGI3Xmlzi0Xihc-1" vertex="1">
          <mxGeometry x="-250" y="61.84" width="300" height="70" as="geometry" />
        </mxCell>
        <mxCell id="nOERkIqGI3Xmlzi0Xihc-90" value="" style="endArrow=block;html=1;rounded=1;strokeWidth=2;sketch=1;curveFitting=1;jiggle=2;labelBackgroundColor=none;strokeColor=#00CC00;fontColor=default;endFill=1;edgeStyle=orthogonalEdgeStyle;curved=1;exitX=0.54;exitY=0.995;exitDx=0;exitDy=0;exitPerimeter=0;entryX=0.5;entryY=0;entryDx=0;entryDy=0;" parent="nOERkIqGI3Xmlzi0Xihc-1" source="nOERkIqGI3Xmlzi0Xihc-89" target="nOERkIqGI3Xmlzi0Xihc-87" edge="1">
          <mxGeometry width="50" height="50" relative="1" as="geometry">
            <mxPoint x="-240" y="10" as="sourcePoint" />
            <mxPoint x="-440" y="180" as="targetPoint" />
          </mxGeometry>
        </mxCell>
        <mxCell id="nOERkIqGI3Xmlzi0Xihc-91" value="with traffic window" style="edgeLabel;html=1;align=center;verticalAlign=middle;resizable=0;points=[];fontSize=20;fontFamily=Architects Daughter;fontColor=#393C56;" parent="nOERkIqGI3Xmlzi0Xihc-90" vertex="1" connectable="0">
          <mxGeometry x="-0.3836" y="-11" relative="1" as="geometry">
            <mxPoint x="-93" y="-15" as="offset" />
          </mxGeometry>
        </mxCell>
        <mxCell id="nOERkIqGI3Xmlzi0Xihc-92" value="" style="endArrow=block;html=1;rounded=1;strokeWidth=2;sketch=1;curveFitting=1;jiggle=2;labelBackgroundColor=none;strokeColor=#00CC00;fontColor=default;endFill=1;edgeStyle=orthogonalEdgeStyle;curved=1;exitX=1;exitY=0.5;exitDx=0;exitDy=0;" parent="nOERkIqGI3Xmlzi0Xihc-1" source="nOERkIqGI3Xmlzi0Xihc-87" target="nOERkIqGI3Xmlzi0Xihc-94" edge="1">
          <mxGeometry width="50" height="50" relative="1" as="geometry">
            <mxPoint x="-78" y="141" as="sourcePoint" />
            <mxPoint x="-285" y="270" as="targetPoint" />
          </mxGeometry>
        </mxCell>
        <mxCell id="nOERkIqGI3Xmlzi0Xihc-93" value="choose traffic facade" style="edgeLabel;html=1;align=center;verticalAlign=middle;resizable=0;points=[];fontSize=17;fontFamily=Architects Daughter;fontColor=#393C56;fontSource=https%3A%2F%2Ffonts.googleapis.com%2Fcss%3Ffamily%3DArchitects%2BDaughter;" parent="nOERkIqGI3Xmlzi0Xihc-92" vertex="1" connectable="0">
          <mxGeometry x="-0.3836" y="-11" relative="1" as="geometry">
            <mxPoint x="513" y="119" as="offset" />
          </mxGeometry>
        </mxCell>
        <mxCell id="nOERkIqGI3Xmlzi0Xihc-94" value="&lt;div style=&quot;background-color: rgb(255, 255, 255); color: rgb(8, 8, 8); font-size: 17px;&quot;&gt;&lt;div style=&quot;font-size: 17px;&quot;&gt;DirectShortestPathSearch&lt;/div&gt;&lt;/div&gt;" style="rounded=0;whiteSpace=wrap;html=1;sketch=1;hachureGap=4;jiggle=2;curveFitting=1;strokeColor=#E07A5F;fontFamily=Architects Daughter;fontSource=https%3A%2F%2Ffonts.googleapis.com%2Fcss%3Ffamily%3DArchitects%2BDaughter;fontSize=17;fontColor=#393C56;fillColor=#F2CC8F;" parent="nOERkIqGI3Xmlzi0Xihc-1" vertex="1">
          <mxGeometry x="80" y="260" width="220" height="60" as="geometry" />
        </mxCell>
        <mxCell id="nOERkIqGI3Xmlzi0Xihc-95" value="&lt;div style=&quot;background-color: rgb(255, 255, 255); color: rgb(8, 8, 8); font-size: 17px;&quot;&gt;&lt;div style=&quot;font-size: 17px;&quot;&gt;AlternativePathSearch&lt;/div&gt;&lt;/div&gt;" style="rounded=0;whiteSpace=wrap;html=1;sketch=1;hachureGap=4;jiggle=2;curveFitting=1;strokeColor=#E07A5F;fontFamily=Architects Daughter;fontSource=https%3A%2F%2Ffonts.googleapis.com%2Fcss%3Ffamily%3DArchitects%2BDaughter;fontSize=17;fontColor=#393C56;fillColor=#F2CC8F;" parent="nOERkIqGI3Xmlzi0Xihc-1" vertex="1">
          <mxGeometry x="80" y="340" width="220" height="60" as="geometry" />
        </mxCell>
        <mxCell id="nOERkIqGI3Xmlzi0Xihc-96" value="&lt;div style=&quot;background-color: rgb(255, 255, 255); color: rgb(8, 8, 8); font-size: 17px;&quot;&gt;&lt;div style=&quot;font-size: 17px;&quot;&gt;AlternativePathSearch&lt;/div&gt;&lt;/div&gt;" style="rounded=0;whiteSpace=wrap;html=1;sketch=1;hachureGap=4;jiggle=2;curveFitting=1;strokeColor=#E07A5F;fontFamily=Architects Daughter;fontSource=https%3A%2F%2Ffonts.googleapis.com%2Fcss%3Ffamily%3DArchitects%2BDaughter;fontSize=17;fontColor=#393C56;fillColor=#F2CC8F;" parent="nOERkIqGI3Xmlzi0Xihc-1" vertex="1">
          <mxGeometry x="80" y="420" width="220" height="60" as="geometry" />
        </mxCell>
        <mxCell id="nOERkIqGI3Xmlzi0Xihc-97" value="" style="endArrow=none;html=1;rounded=1;strokeWidth=2;sketch=1;curveFitting=1;jiggle=2;labelBackgroundColor=none;strokeColor=#00CC00;fontColor=default;endFill=0;edgeStyle=orthogonalEdgeStyle;curved=1;exitX=1;exitY=0.75;exitDx=0;exitDy=0;entryX=0;entryY=0.5;entryDx=0;entryDy=0;dashed=1;startArrow=none;startFill=0;fontFamily=Architects Daughter;fontSource=https%3A%2F%2Ffonts.googleapis.com%2Fcss%3Ffamily%3DArchitects%2BDaughter;" parent="nOERkIqGI3Xmlzi0Xihc-1" source="nOERkIqGI3Xmlzi0Xihc-94" target="nOERkIqGI3Xmlzi0Xihc-83" edge="1">
          <mxGeometry width="50" height="50" relative="1" as="geometry">
            <mxPoint x="-160" y="300" as="sourcePoint" />
            <mxPoint x="90" y="300" as="targetPoint" />
            <Array as="points">
              <mxPoint x="370" y="305" />
              <mxPoint x="370" y="520" />
              <mxPoint x="460" y="520" />
            </Array>
          </mxGeometry>
        </mxCell>
        <mxCell id="nOERkIqGI3Xmlzi0Xihc-98" value="&lt;div style=&quot;background-color: rgb(255, 255, 255); color: rgb(8, 8, 8); font-size: 17px;&quot;&gt;&lt;div style=&quot;font-size: 17px;&quot;&gt;routingStep&lt;/div&gt;&lt;/div&gt;" style="rounded=0;whiteSpace=wrap;html=1;sketch=1;hachureGap=4;jiggle=2;curveFitting=1;strokeColor=#E07A5F;fontFamily=Architects Daughter;fontSource=https%3A%2F%2Ffonts.googleapis.com%2Fcss%3Ffamily%3DArchitects%2BDaughter;fontSize=17;fontColor=#393C56;fillColor=#F2CC8F;" parent="nOERkIqGI3Xmlzi0Xihc-1" vertex="1">
          <mxGeometry x="380" y="280" width="220" height="60" as="geometry" />
        </mxCell>
        <mxCell id="nOERkIqGI3Xmlzi0Xihc-99" value="" style="shape=flexArrow;endArrow=classic;html=1;rounded=0;sketch=1;hachureGap=4;jiggle=2;curveFitting=1;strokeColor=#A50040;fontFamily=Architects Daughter;fontSource=https%3A%2F%2Ffonts.googleapis.com%2Fcss%3Ffamily%3DArchitects%2BDaughter;fontSize=16;fontColor=#393C56;fillColor=#d80073;" parent="nOERkIqGI3Xmlzi0Xihc-1" edge="1">
          <mxGeometry width="50" height="50" relative="1" as="geometry">
            <mxPoint x="550" y="588.33" as="sourcePoint" />
            <mxPoint x="538" y="558.3300000000002" as="targetPoint" />
          </mxGeometry>
        </mxCell>
        <mxCell id="nOERkIqGI3Xmlzi0Xihc-100" value="Container (traffic)" style="swimlane;whiteSpace=wrap;html=1;sketch=1;hachureGap=4;jiggle=2;curveFitting=1;strokeColor=#E07A5F;fontFamily=Architects Daughter;fontSource=https%3A%2F%2Ffonts.googleapis.com%2Fcss%3Ffamily%3DArchitects%2BDaughter;fontSize=20;fontColor=#393C56;fillColor=#F2CC8F;" parent="nOERkIqGI3Xmlzi0Xihc-1" vertex="1">
          <mxGeometry x="360" y="608.33" width="210" height="371.67" as="geometry" />
        </mxCell>
        <mxCell id="nOERkIqGI3Xmlzi0Xihc-101" value="" style="endArrow=block;html=1;rounded=1;strokeWidth=2;sketch=1;curveFitting=1;jiggle=2;labelBackgroundColor=none;strokeColor=#00CC00;fontColor=default;endFill=1;edgeStyle=orthogonalEdgeStyle;curved=1;exitX=1.005;exitY=0.392;exitDx=0;exitDy=0;exitPerimeter=0;entryX=0;entryY=0.5;entryDx=0;entryDy=0;fontFamily=Architects Daughter;fontSource=https%3A%2F%2Ffonts.googleapis.com%2Fcss%3Ffamily%3DArchitects%2BDaughter;" parent="nOERkIqGI3Xmlzi0Xihc-1" source="nOERkIqGI3Xmlzi0Xihc-94" target="nOERkIqGI3Xmlzi0Xihc-98" edge="1">
          <mxGeometry width="50" height="50" relative="1" as="geometry">
            <mxPoint x="310" y="140" as="sourcePoint" />
            <mxPoint x="560" y="140" as="targetPoint" />
          </mxGeometry>
        </mxCell>
        <mxCell id="nOERkIqGI3Xmlzi0Xihc-102" value="&lt;div style=&quot;background-color: rgb(255, 255, 255); color: rgb(8, 8, 8); font-size: 17px;&quot;&gt;&lt;div style=&quot;font-size: 17px;&quot;&gt;relaxOutgoingEdges&lt;/div&gt;&lt;/div&gt;" style="rounded=0;whiteSpace=wrap;html=1;sketch=1;hachureGap=4;jiggle=2;curveFitting=1;strokeColor=#E07A5F;fontFamily=Architects Daughter;fontSource=https%3A%2F%2Ffonts.googleapis.com%2Fcss%3Ffamily%3DArchitects%2BDaughter;fontSize=17;fontColor=#393C56;fillColor=#F2CC8F;" parent="nOERkIqGI3Xmlzi0Xihc-1" vertex="1">
          <mxGeometry x="440" y="350" width="220" height="60" as="geometry" />
        </mxCell>
        <mxCell id="nOERkIqGI3Xmlzi0Xihc-103" value="&lt;div style=&quot;background-color: rgb(255, 255, 255); color: rgb(8, 8, 8); font-size: 17px;&quot;&gt;&lt;div style=&quot;font-size: 17px;&quot;&gt;reverseHeap&lt;/div&gt;&lt;/div&gt;" style="rounded=0;whiteSpace=wrap;html=1;sketch=1;hachureGap=4;jiggle=2;curveFitting=1;strokeColor=#E07A5F;fontFamily=Architects Daughter;fontSource=https%3A%2F%2Ffonts.googleapis.com%2Fcss%3Ffamily%3DArchitects%2BDaughter;fontSize=17;fontColor=#393C56;fillColor=#F2CC8F;" parent="nOERkIqGI3Xmlzi0Xihc-1" vertex="1">
          <mxGeometry x="690" y="350" width="110" height="60" as="geometry" />
        </mxCell>
        <mxCell id="nOERkIqGI3Xmlzi0Xihc-104" value="&lt;div style=&quot;background-color: rgb(255, 255, 255); color: rgb(8, 8, 8); font-size: 17px;&quot;&gt;&lt;div style=&quot;font-size: 17px;&quot;&gt;forwardHeap&lt;/div&gt;&lt;/div&gt;" style="rounded=0;whiteSpace=wrap;html=1;sketch=1;hachureGap=4;jiggle=2;curveFitting=1;strokeColor=#E07A5F;fontFamily=Architects Daughter;fontSource=https%3A%2F%2Ffonts.googleapis.com%2Fcss%3Ffamily%3DArchitects%2BDaughter;fontSize=17;fontColor=#393C56;fillColor=#F2CC8F;" parent="nOERkIqGI3Xmlzi0Xihc-1" vertex="1">
          <mxGeometry x="690" y="280" width="110" height="60" as="geometry" />
        </mxCell>
        <mxCell id="nOERkIqGI3Xmlzi0Xihc-105" value="" style="endArrow=block;html=1;rounded=1;strokeWidth=2;sketch=1;curveFitting=1;jiggle=2;labelBackgroundColor=none;strokeColor=#00CC00;fontColor=default;endFill=1;edgeStyle=orthogonalEdgeStyle;curved=1;exitX=0.118;exitY=0.992;exitDx=0;exitDy=0;exitPerimeter=0;entryX=0;entryY=0.5;entryDx=0;entryDy=0;fontFamily=Architects Daughter;fontSource=https%3A%2F%2Ffonts.googleapis.com%2Fcss%3Ffamily%3DArchitects%2BDaughter;fontSize=17;" parent="nOERkIqGI3Xmlzi0Xihc-1" source="nOERkIqGI3Xmlzi0Xihc-98" target="nOERkIqGI3Xmlzi0Xihc-102" edge="1">
          <mxGeometry width="50" height="50" relative="1" as="geometry">
            <mxPoint x="311" y="294" as="sourcePoint" />
            <mxPoint x="390" y="320" as="targetPoint" />
          </mxGeometry>
        </mxCell>
        <mxCell id="nOERkIqGI3Xmlzi0Xihc-106" value="" style="endArrow=none;dashed=1;html=1;dashPattern=1 3;strokeWidth=2;rounded=0;sketch=1;hachureGap=4;jiggle=2;curveFitting=1;strokeColor=#E07A5F;fontFamily=Architects Daughter;fontSource=https%3A%2F%2Ffonts.googleapis.com%2Fcss%3Ffamily%3DArchitects%2BDaughter;fontSize=17;fontColor=#393C56;fillColor=#F2CC8F;entryX=0;entryY=0.5;entryDx=0;entryDy=0;exitX=1.009;exitY=0.383;exitDx=0;exitDy=0;exitPerimeter=0;" parent="nOERkIqGI3Xmlzi0Xihc-1" source="nOERkIqGI3Xmlzi0Xihc-102" target="nOERkIqGI3Xmlzi0Xihc-104" edge="1">
          <mxGeometry width="50" height="50" relative="1" as="geometry">
            <mxPoint x="630" y="762" as="sourcePoint" />
            <mxPoint x="680" y="745" as="targetPoint" />
          </mxGeometry>
        </mxCell>
        <mxCell id="nOERkIqGI3Xmlzi0Xihc-107" value="" style="endArrow=none;dashed=1;html=1;dashPattern=1 3;strokeWidth=2;rounded=0;sketch=1;hachureGap=4;jiggle=2;curveFitting=1;strokeColor=#E07A5F;fontFamily=Architects Daughter;fontSource=https%3A%2F%2Ffonts.googleapis.com%2Fcss%3Ffamily%3DArchitects%2BDaughter;fontSize=17;fontColor=#393C56;fillColor=#F2CC8F;entryX=0;entryY=0.5;entryDx=0;entryDy=0;exitX=1;exitY=0.5;exitDx=0;exitDy=0;" parent="nOERkIqGI3Xmlzi0Xihc-1" source="nOERkIqGI3Xmlzi0Xihc-102" target="nOERkIqGI3Xmlzi0Xihc-103" edge="1">
          <mxGeometry width="50" height="50" relative="1" as="geometry">
            <mxPoint x="672" y="383" as="sourcePoint" />
            <mxPoint x="700" y="320" as="targetPoint" />
          </mxGeometry>
        </mxCell>
      </root>
    </mxGraphModel>
  </diagram>
</mxfile>
